<svg xmlns="http://www.w3.org/2000/svg" width="222" height="222" fill="none" viewBox="0 0 222 222">
    <path fill="#0086BF" d="M102.322.836a112.047 112.047 0 0 1 17.356 0 .5.5 0 1 1-.078.997 111.008 111.008 0 0 0-17.2 0 .5.5 0 0 1-.078-.997ZM136.204 3.9a.5.5 0 0 1 .602-.37 109.608 109.608 0 0 1 16.492 5.355.501.501 0 0 1-.383.924 108.656 108.656 0 0 0-16.341-5.307.5.5 0 0 1-.37-.602Zm-50.408 0a.5.5 0 0 1-.37.602A108.652 108.652 0 0 0 69.085 9.81a.5.5 0 0 1-.383-.924A109.652 109.652 0 0 1 85.194 3.53a.5.5 0 0 1 .602.37Zm82.259 13.034a.5.5 0 0 1 .688-.165 110.858 110.858 0 0 1 14.022 10.204.5.5 0 1 1-.65.76 109.826 109.826 0 0 0-13.895-10.111.5.5 0 0 1-.165-.688Zm-114.11 0a.5.5 0 0 1-.165.688 109.844 109.844 0 0 0-13.895 10.111.5.5 0 0 1-.65-.76A110.856 110.856 0 0 1 53.257 16.77a.5.5 0 0 1 .688.165ZM27.678 39.18a.5.5 0 0 1 .055.705A109.844 109.844 0 0 0 17.622 53.78a.5.5 0 0 1-.853-.523 110.856 110.856 0 0 1 10.204-14.022.5.5 0 0 1 .705-.055Zm166.644 0a.5.5 0 0 1 .705.055 110.974 110.974 0 0 1 10.204 14.022.5.5 0 0 1-.852.523c-3.01-4.9-6.393-9.545-10.112-13.895a.5.5 0 0 1 .055-.705Zm18.14 29.252a.5.5 0 0 1 .653.27 109.705 109.705 0 0 1 5.355 16.492.5.5 0 0 1-.972.232 108.635 108.635 0 0 0-5.307-16.341.5.5 0 0 1 .271-.653Zm-202.924 0a.5.5 0 0 1 .27.653 108.653 108.653 0 0 0-5.306 16.341.5.5 0 0 1-.972-.232 109.653 109.653 0 0 1 5.355-16.492.5.5 0 0 1 .653-.27Zm211.089 33.43a.5.5 0 0 1 .537.46c.223 2.864.336 5.758.336 8.678 0 2.92-.113 5.814-.336 8.678a.499.499 0 1 1-.997-.078c.221-2.837.333-5.706.333-8.6 0-2.894-.112-5.763-.333-8.6a.501.501 0 0 1 .46-.538Zm-219.254.001a.5.5 0 0 1 .46.537 111.008 111.008 0 0 0 0 17.2.5.5 0 0 1-.997.078 112.047 112.047 0 0 1 0-17.356.5.5 0 0 1 .537-.459ZM218.1 136.204a.5.5 0 0 1 .37.602 109.546 109.546 0 0 1-5.355 16.492.5.5 0 0 1-.924-.383 108.637 108.637 0 0 0 5.307-16.341.5.5 0 0 1 .602-.37Zm-214.2 0a.5.5 0 0 1 .602.37 108.655 108.655 0 0 0 5.307 16.341.5.5 0 0 1-.924.383 109.607 109.607 0 0 1-5.355-16.492.5.5 0 0 1 .37-.602Zm13.034 31.851a.5.5 0 0 1 .688.165c3.009 4.9 6.392 9.545 10.111 13.895a.5.5 0 0 1-.76.65 110.858 110.858 0 0 1-10.204-14.022.5.5 0 0 1 .165-.688Zm188.132 0a.5.5 0 0 1 .165.688 110.977 110.977 0 0 1-10.204 14.022.5.5 0 1 1-.76-.65 109.926 109.926 0 0 0 10.112-13.895.5.5 0 0 1 .687-.165ZM39.18 194.322a.5.5 0 0 1 .705-.055 109.943 109.943 0 0 0 13.895 10.112.5.5 0 1 1-.523.852 110.974 110.974 0 0 1-14.022-10.204.5.5 0 0 1-.055-.705Zm143.64 0a.5.5 0 0 1-.055.705 110.977 110.977 0 0 1-14.022 10.204.5.5 0 0 1-.523-.852c4.9-3.01 9.545-6.393 13.895-10.112a.5.5 0 0 1 .705.055Zm-114.388 18.14a.501.501 0 0 1 .653-.271 108.635 108.635 0 0 0 16.341 5.307.5.5 0 1 1-.232.972 109.591 109.591 0 0 1-16.492-5.355.5.5 0 0 1-.27-.653Zm85.137 0a.5.5 0 0 1-.271.653 109.66 109.66 0 0 1-16.492 5.355.5.5 0 1 1-.232-.972 108.637 108.637 0 0 0 16.341-5.307.501.501 0 0 1 .654.271Zm-51.706 8.165a.5.5 0 0 1 .537-.46c2.837.221 5.706.333 8.6.333 2.894 0 5.763-.112 8.6-.333a.5.5 0 1 1 .078.997c-2.864.223-5.758.336-8.678.336-2.92 0-5.814-.113-8.678-.336a.499.499 0 0 1-.459-.537Z"/>
</svg>
