<svg xmlns="http://www.w3.org/2000/svg" width="243" height="243" fill="none" viewBox="0 0 243 243"><path fill="#0086BF" d="M113.579.755a122.834 122.834 0 0 1 15.842 0 .501.501 0 0 1-.065.998 121.794 121.794 0 0 0-15.712 0 .5.5 0 0 1-.065-.998ZM98.474 3.197a.5.5 0 0 1-.394.587A119.114 119.114 0 0 0 82.913 7.84a.5.5 0 1 1-.321-.947 120.11 120.11 0 0 1 15.294-4.089.5.5 0 0 1 .588.394Zm46.053 0a.5.5 0 0 1 .587-.394 120.089 120.089 0 0 1 15.294 4.089.5.5 0 1 1-.321.947 119.088 119.088 0 0 0-15.167-4.055.5.5 0 0 1-.393-.587ZM68.641 13.18a.5.5 0 0 1-.227.67 119.858 119.858 0 0 0-13.587 7.86.5.5 0 0 1-.557-.83 120.874 120.874 0 0 1 13.701-7.927.5.5 0 0 1 .67.227Zm105.718 0a.5.5 0 0 1 .67-.227 120.874 120.874 0 0 1 13.701 7.927.5.5 0 0 1-.556.83 119.925 119.925 0 0 0-13.588-7.86.5.5 0 0 1-.227-.67Zm26.217 17.39a.5.5 0 0 1 .706-.045 121.82 121.82 0 0 1 11.192 11.192.5.5 0 1 1-.751.66 120.81 120.81 0 0 0-11.101-11.1.5.5 0 0 1-.046-.706Zm-158.152 0a.5.5 0 0 1-.046.706 120.717 120.717 0 0 0-11.1 11.101.5.5 0 0 1-.752-.66 121.764 121.764 0 0 1 11.192-11.192.5.5 0 0 1 .706.046Zm179.001 23.562a.5.5 0 0 1 .694.137 120.938 120.938 0 0 1 7.927 13.701.5.5 0 0 1-.897.443 119.828 119.828 0 0 0-7.861-13.587.501.501 0 0 1 .137-.694Zm-199.85 0a.5.5 0 0 1 .137.694 119.858 119.858 0 0 0-7.861 13.587.5.5 0 0 1-.897-.443 120.874 120.874 0 0 1 7.927-13.7.5.5 0 0 1 .694-.138ZM7.524 82.279a.5.5 0 0 1 .314.634A119.114 119.114 0 0 0 3.784 98.08a.5.5 0 1 1-.98-.194 120.11 120.11 0 0 1 4.088-15.294.5.5 0 0 1 .634-.313Zm227.949 0a.5.5 0 0 1 .634.313 120.07 120.07 0 0 1 4.089 15.294.5.5 0 0 1-.981.194 119.17 119.17 0 0 0-4.055-15.167.501.501 0 0 1 .313-.634Zm6.24 30.833a.501.501 0 0 1 .531.467 122.991 122.991 0 0 1 0 15.842.5.5 0 1 1-.998-.065 121.672 121.672 0 0 0 0-15.712.5.5 0 0 1 .467-.532Zm-240.428 0a.5.5 0 0 1 .467.532 121.794 121.794 0 0 0 0 15.712.5.5 0 0 1-.998.065 122.834 122.834 0 0 1 0-15.842.501.501 0 0 1 .531-.467Zm1.91 31.415a.5.5 0 0 1 .588.393 119.088 119.088 0 0 0 4.055 15.167.5.5 0 0 1-.947.321 120.089 120.089 0 0 1-4.089-15.294.5.5 0 0 1 .394-.587Zm236.607 0a.5.5 0 0 1 .394.587 120.048 120.048 0 0 1-4.089 15.294.499.499 0 1 1-.947-.321c1.67-4.92 3.029-9.983 4.055-15.167a.499.499 0 0 1 .587-.393ZM13.181 174.359a.5.5 0 0 1 .67.227 119.925 119.925 0 0 0 7.86 13.588.5.5 0 1 1-.83.556 120.874 120.874 0 0 1-7.927-13.701.5.5 0 0 1 .227-.67Zm216.638 0a.5.5 0 0 1 .227.67 120.938 120.938 0 0 1-7.927 13.701.5.5 0 0 1-.831-.556 119.894 119.894 0 0 0 7.861-13.588.5.5 0 0 1 .67-.227ZM30.572 200.576a.5.5 0 0 1 .706.046 120.81 120.81 0 0 0 11.1 11.101.5.5 0 1 1-.66.751 121.82 121.82 0 0 1-11.192-11.192.5.5 0 0 1 .046-.706Zm181.856 0a.5.5 0 0 1 .046.706 121.878 121.878 0 0 1-11.192 11.192.5.5 0 0 1-.66-.751 120.901 120.901 0 0 0 11.101-11.101.499.499 0 0 1 .705-.046ZM54.133 221.425a.501.501 0 0 1 .694-.137 119.828 119.828 0 0 0 13.587 7.861.5.5 0 0 1-.443.897 120.938 120.938 0 0 1-13.7-7.927.5.5 0 0 1-.138-.694Zm134.734 0a.5.5 0 0 1-.137.694 120.938 120.938 0 0 1-13.701 7.927.5.5 0 0 1-.443-.897 119.894 119.894 0 0 0 13.588-7.861.5.5 0 0 1 .693.137ZM82.279 235.474a.501.501 0 0 1 .634-.313 119.17 119.17 0 0 0 15.167 4.055.5.5 0 1 1-.194.981 120.07 120.07 0 0 1-15.294-4.089.5.5 0 0 1-.313-.634Zm78.442 0a.499.499 0 0 1-.313.634 120.048 120.048 0 0 1-15.294 4.089.5.5 0 0 1-.194-.981 119.142 119.142 0 0 0 15.167-4.055.501.501 0 0 1 .634.313Zm-47.609 6.24a.5.5 0 0 1 .532-.467 121.672 121.672 0 0 0 15.712 0 .5.5 0 1 1 .065.998 122.991 122.991 0 0 1-15.842 0 .501.501 0 0 1-.467-.531Z"/></svg>
