<svg width="191" height="191" viewBox="0 0 191 191" fill="none" xmlns="http://www.w3.org/2000/svg">
<path fill-rule="evenodd" clip-rule="evenodd" d="M88.0396 0.788654C90.5013 0.597404 92.9893 0.5 95.5 0.5C98.0107 0.5 100.499 0.597404 102.96 0.788652C103.236 0.810041 103.442 1.05056 103.42 1.32588C103.399 1.60119 103.158 1.80704 102.883 1.78565C100.447 1.5964 97.9848 1.5 95.5 1.5C93.0152 1.5 90.553 1.5964 88.117 1.78565C87.8417 1.80704 87.6012 1.60119 87.5798 1.32588C87.5584 1.05057 87.7642 0.810042 88.0396 0.788654ZM117.084 3.47475C117.148 3.20618 117.418 3.04056 117.686 3.10481C122.57 4.27321 127.307 5.81873 131.865 7.70884C132.12 7.81462 132.241 8.10715 132.135 8.36223C132.03 8.61731 131.737 8.73835 131.482 8.63257C126.972 6.76249 122.285 5.23337 117.454 4.07736C117.185 4.01311 117.02 3.74331 117.084 3.47475ZM73.9162 3.47475C73.9804 3.74331 73.8148 4.01311 73.5462 4.07737C68.7145 5.23338 64.0277 6.76249 59.5181 8.63257C59.263 8.73835 58.9705 8.61732 58.8647 8.36224C58.7589 8.10716 58.8799 7.81463 59.135 7.70885C63.693 5.81873 68.43 4.27322 73.3135 3.10482C73.5821 3.04056 73.8519 3.20618 73.9162 3.47475ZM144.456 14.6517C144.6 14.4164 144.908 14.3427 145.144 14.4873C149.395 17.0978 153.424 20.0336 157.198 23.2598C157.408 23.4393 157.433 23.7549 157.254 23.9648C157.074 24.1747 156.759 24.1994 156.549 24.0199C152.814 20.8274 148.827 17.9225 144.62 15.3394C144.385 15.1949 144.311 14.887 144.456 14.6517ZM46.5442 14.6517C46.6887 14.887 46.6151 15.1949 46.3798 15.3394C42.1734 17.9225 38.1858 20.8274 34.4514 24.0199C34.2415 24.1994 33.9258 24.1747 33.7464 23.9648C33.567 23.7549 33.5917 23.4393 33.8016 23.2598C37.5755 20.0336 41.6054 17.0978 45.8565 14.4873C46.0918 14.3427 46.3997 14.4164 46.5442 14.6517ZM23.9648 33.7464C24.1747 33.9258 24.1994 34.2415 24.0199 34.4514C20.8274 38.1858 17.9225 42.1734 15.3394 46.3798C15.1949 46.6151 14.887 46.6887 14.6517 46.5442C14.4164 46.3997 14.3427 46.0918 14.4873 45.8565C17.0978 41.6054 20.0336 37.5755 23.2598 33.8016C23.4393 33.5917 23.7549 33.567 23.9648 33.7464ZM167.035 33.7464C167.245 33.567 167.561 33.5917 167.74 33.8016C170.966 37.5755 173.902 41.6054 176.513 45.8565C176.657 46.0918 176.584 46.3997 176.348 46.5442C176.113 46.6887 175.805 46.6151 175.661 46.3798C173.078 42.1734 170.173 38.1858 166.98 34.4514C166.801 34.2415 166.825 33.9258 167.035 33.7464ZM182.638 58.8647C182.893 58.7589 183.185 58.8799 183.291 59.135C185.181 63.693 186.727 68.43 187.895 73.3135C187.959 73.5821 187.794 73.8519 187.525 73.9162C187.257 73.9804 186.987 73.8148 186.923 73.5462C185.767 68.7145 184.238 64.0277 182.367 59.5181C182.262 59.263 182.383 58.9705 182.638 58.8647ZM8.36223 58.8647C8.61731 58.9705 8.73835 59.263 8.63257 59.5181C6.76249 64.0277 5.23337 68.7145 4.07736 73.5462C4.01311 73.8148 3.74331 73.9804 3.47475 73.9162C3.20618 73.8519 3.04056 73.5821 3.10481 73.3135C4.27321 68.43 5.81873 63.693 7.70884 59.135C7.81462 58.8799 8.10715 58.7589 8.36223 58.8647ZM189.674 87.5798C189.949 87.5584 190.19 87.7642 190.211 88.0396C190.403 90.5013 190.5 92.9893 190.5 95.5C190.5 98.0107 190.403 100.499 190.211 102.96C190.19 103.236 189.949 103.442 189.674 103.42C189.399 103.399 189.193 103.158 189.214 102.883C189.404 100.447 189.5 97.9848 189.5 95.5C189.5 93.0152 189.404 90.553 189.214 88.117C189.193 87.8417 189.399 87.6012 189.674 87.5798ZM1.32588 87.5798C1.60119 87.6012 1.80704 87.8417 1.78565 88.117C1.5964 90.5531 1.5 93.0152 1.5 95.5C1.5 97.9848 1.5964 100.447 1.78565 102.883C1.80704 103.158 1.60119 103.399 1.32588 103.42C1.05057 103.442 0.810042 103.236 0.788654 102.96C0.597404 100.499 0.5 98.0107 0.5 95.5C0.5 92.9893 0.597404 90.5013 0.788652 88.0396C0.810041 87.7643 1.05056 87.5584 1.32588 87.5798ZM187.525 117.084C187.794 117.148 187.959 117.418 187.895 117.686C186.727 122.57 185.181 127.307 183.291 131.865C183.185 132.12 182.893 132.241 182.638 132.135C182.383 132.03 182.262 131.737 182.367 131.482C184.238 126.972 185.767 122.285 186.923 117.454C186.987 117.185 187.257 117.02 187.525 117.084ZM3.47475 117.084C3.74331 117.02 4.01311 117.185 4.07737 117.454C5.23338 122.286 6.76249 126.972 8.63257 131.482C8.73835 131.737 8.61732 132.03 8.36224 132.135C8.10716 132.241 7.81463 132.12 7.70885 131.865C5.81873 127.307 4.27322 122.57 3.10482 117.686C3.04056 117.418 3.20618 117.148 3.47475 117.084ZM14.6517 144.456C14.887 144.311 15.1949 144.385 15.3394 144.62C17.9225 148.827 20.8274 152.814 24.0199 156.549C24.1994 156.759 24.1747 157.074 23.9648 157.254C23.7549 157.433 23.4393 157.408 23.2598 157.198C20.0336 153.424 17.0978 149.395 14.4873 145.144C14.3427 144.908 14.4164 144.6 14.6517 144.456ZM176.348 144.456C176.584 144.6 176.657 144.908 176.513 145.144C173.902 149.395 170.966 153.424 167.74 157.198C167.561 157.408 167.245 157.433 167.035 157.254C166.825 157.074 166.801 156.759 166.98 156.549C170.173 152.814 173.078 148.827 175.661 144.62C175.805 144.385 176.113 144.311 176.348 144.456ZM33.7464 167.035C33.9258 166.825 34.2415 166.801 34.4514 166.98C38.1858 170.173 42.1734 173.078 46.3798 175.661C46.6151 175.805 46.6887 176.113 46.5442 176.348C46.3997 176.584 46.0918 176.657 45.8565 176.513C41.6054 173.902 37.5755 170.966 33.8016 167.74C33.5917 167.561 33.567 167.245 33.7464 167.035ZM157.254 167.035C157.433 167.245 157.408 167.561 157.198 167.74C153.424 170.966 149.395 173.902 145.144 176.513C144.908 176.657 144.6 176.584 144.456 176.348C144.311 176.113 144.385 175.805 144.62 175.661C148.827 173.078 152.814 170.173 156.549 166.98C156.759 166.801 157.074 166.825 157.254 167.035ZM58.8647 182.638C58.9705 182.383 59.263 182.262 59.5181 182.367C64.0277 184.238 68.7145 185.767 73.5462 186.923C73.8148 186.987 73.9804 187.257 73.9162 187.525C73.8519 187.794 73.5821 187.959 73.3135 187.895C68.43 186.727 63.693 185.181 59.135 183.291C58.8799 183.185 58.7589 182.893 58.8647 182.638ZM132.135 182.638C132.241 182.893 132.12 183.185 131.865 183.291C127.307 185.181 122.57 186.727 117.686 187.895C117.418 187.959 117.148 187.794 117.084 187.525C117.02 187.257 117.185 186.987 117.454 186.923C122.286 185.767 126.972 184.238 131.482 182.367C131.737 182.262 132.03 182.383 132.135 182.638ZM87.5798 189.674C87.6012 189.399 87.8417 189.193 88.117 189.214C90.5531 189.404 93.0152 189.5 95.5 189.5C97.9848 189.5 100.447 189.404 102.883 189.214C103.158 189.193 103.399 189.399 103.42 189.674C103.442 189.949 103.236 190.19 102.96 190.211C100.499 190.403 98.0107 190.5 95.5 190.5C92.9893 190.5 90.5013 190.403 88.0396 190.211C87.7643 190.19 87.5584 189.949 87.5798 189.674Z" fill="#0086BF"/>
</svg>
