<svg xmlns="http://www.w3.org/2000/svg" width="540" height="255" fill="none" viewBox="0 0 540 255">
    <path fill="#65B6D6" d="m-.69-.5 49.97 28.85L-.69 57.2l-49.97-28.85L-.69-.5Zm0 1-48.237 27.85L-.69 56.2l48.237-27.85L-.69.5Z"/>
    <path fill="#65B6D6" d="m-1.123 56.45 49.97-28.85v29.35L-1.123 85.8V56.45Zm.866.5V84.3l48.238-27.85V29.1L-.258 56.95Z"/>
    <path fill="#65B6D6" d="m-.69 84.55 49.97 28.849-49.97 28.85-49.97-28.85 49.97-28.85Zm0 1-48.237 27.849 48.237 27.85 48.237-27.85L-.69 85.549Z"/>
    <path fill="#65B6D6" d="m-1.123 141.498 49.97-28.85v29.35l-49.97 28.85v-29.35Zm.866.5v27.35l48.237-27.85v-27.35l-48.237 27.85Z"/>
    <path fill="#65B6D6" d="m-.69 169.599 49.97 28.85-49.97 28.85-49.97-28.85 49.97-28.85Zm0 1-48.237 27.85 48.237 27.85 48.237-27.85-48.237-27.85Z"/>
    <path fill="#65B6D6" d="m-1.123 226.548 49.97-28.85v29.35l-49.97 28.85v-29.35Zm.866.5v27.35l48.238-27.85v-27.35l-48.238 27.85Z"/>
    <path fill="#65B6D6" d="m-.69 254.648 49.97 28.85-49.97 28.849-49.97-28.849 49.97-28.85Zm0 1-48.237 27.85L-.69 311.347l48.237-27.849-48.237-27.85ZM97.516-.5l49.97 28.85-49.97 28.85-49.969-28.85L97.517-.5Zm0 1L49.28 28.35 97.516 56.2l48.238-27.85L97.516.5Z"/>
    <path fill="#65B6D6" d="m47.98 27.6 49.97 28.85V85.8L47.98 56.95V27.6Zm.866 1.5v27.35L97.083 84.3V56.95L48.846 29.1Z"/>
    <path fill="#65B6D6" d="m97.083 56.45 49.969-28.85v29.35L97.083 85.8V56.45Zm.866.5V84.3l48.237-27.85V29.1L97.949 56.95Z"/>
    <path fill="#65B6D6" d="m97.516 84.55 49.97 28.849-49.97 28.85-49.969-28.85 49.97-28.85Zm0 1L49.28 113.398l48.237 27.85 48.238-27.85-48.238-27.85Z"/>
    <path fill="#65B6D6" d="m47.98 112.649 49.969 28.85v29.35l-49.97-28.85v-29.35Zm.866 1.5v27.35l48.237 27.85v-27.35l-48.237-27.85Z"/>
    <path fill="#65B6D6" d="m97.083 141.498 49.97-28.85v29.35l-49.97 28.85v-29.35Zm.866.5v27.35l48.238-27.85v-27.35l-48.238 27.85Z"/>
    <path fill="#65B6D6" d="m97.516 169.599 49.97 28.85-49.97 28.85-49.969-28.85 49.97-28.85Zm0 1-48.237 27.85 48.237 27.85 48.238-27.85-48.238-27.85Z"/>
    <path fill="#65B6D6" d="m47.98 197.699 49.97 28.85v29.35l-49.97-28.85v-29.35Zm.866 1.5v27.35l48.237 27.85v-27.35l-48.237-27.85Z"/>
    <path fill="#65B6D6" d="m97.084 226.548 49.969-28.85v29.35l-49.97 28.85v-29.35Zm.866.5v27.35l48.237-27.85v-27.35l-48.237 27.85Z"/>
    <path fill="#65B6D6" d="m97.516 254.648 49.969 28.85-49.969 28.849-49.969-28.849 49.97-28.85Zm0 1-48.237 27.85 48.237 27.849 48.237-27.849-48.237-27.85ZM195.723-.5l49.969 28.85-49.969 28.85-49.969-28.85L195.723-.5Zm0 1-48.237 27.85 48.237 27.85 48.237-27.85L195.723.5Z"/>
    <path fill="#65B6D6" d="m146.187 27.6 49.969 28.85V85.8l-49.969-28.85V27.6Zm.866 1.5v27.35L195.29 84.3V56.95L147.053 29.1Z"/>
    <path fill="#65B6D6" d="m195.29 56.45 49.969-28.85v29.35L195.29 85.8V56.45Zm.866.5V84.3l48.237-27.85V29.1l-48.237 27.85Z"/>
    <path fill="#65B6D6" d="m195.723 84.549 49.969 28.85-49.969 28.849-49.969-28.849 49.969-28.85Zm0 1-48.237 27.85 48.237 27.849 48.237-27.849-48.237-27.85Z"/>
    <path fill="#65B6D6" d="m146.187 112.649 49.969 28.85v29.35l-49.969-28.85v-29.35Zm.866 1.5v27.35l48.237 27.85v-27.35l-48.237-27.85Z"/>
    <path fill="#65B6D6" d="m195.29 141.498 49.969-28.85v29.35l-49.969 28.85v-29.35Zm.866.5v27.35l48.237-27.85v-27.35l-48.237 27.85Z"/>
    <path fill="#65B6D6" d="m195.723 169.599 49.969 28.85-49.969 28.85-49.969-28.85 49.969-28.85Zm0 1-48.237 27.85 48.237 27.85 48.237-27.85-48.237-27.85Z"/>
    <path fill="#65B6D6" d="m146.187 197.699 49.969 28.85v29.35l-49.969-28.85v-29.35Zm.866 1.5v27.35l48.237 27.85v-27.35l-48.237-27.85Z"/>
    <path fill="#65B6D6" d="m195.29 226.548 49.969-28.85v29.35l-49.969 28.85v-29.35Zm.866.5v27.35l48.237-27.85v-27.35l-48.237 27.85Z"/>
    <path fill="#65B6D6" d="m195.723 254.647 49.969 28.85-49.969 28.85-49.969-28.85 49.969-28.85Zm0 1-48.237 27.85 48.237 27.85 48.237-27.85-48.237-27.85ZM293.93-.5l49.969 28.85L293.93 57.2l-49.97-28.85L293.93-.5Zm0 1-48.238 27.85L293.93 56.2l48.237-27.85L293.93.5Z"/>
    <path fill="#65B6D6" d="m244.394 27.6 49.969 28.849v29.35l-49.969-28.85v-29.35Zm.866 1.5v27.349l48.237 27.85v-27.35l-48.237-27.85Z"/>
    <path fill="#65B6D6" d="m293.497 56.45 49.969-28.85v29.35L293.497 85.8V56.45Zm.866.5V84.3L342.6 56.45V29.1l-48.237 27.85Z"/>
    <path fill="#65B6D6" d="m293.93 84.55 49.969 28.849-49.969 28.85-49.97-28.85 49.97-28.85Zm0 1-48.238 27.849 48.238 27.85 48.237-27.85-48.237-27.85Z"/>
    <path fill="#65B6D6" d="m244.394 112.649 49.969 28.85v29.35l-49.969-28.85v-29.35Zm.866 1.5v27.35l48.237 27.85v-27.35l-48.237-27.85Z"/>
    <path fill="#65B6D6" d="m293.497 141.499 49.969-28.85v29.35l-49.969 28.85v-29.35Zm.866.5v27.35l48.237-27.85v-27.35l-48.237 27.85Z"/>
    <path fill="#65B6D6" d="m293.93 169.599 49.969 28.85-49.969 28.85-49.97-28.85 49.97-28.85Zm0 1-48.238 27.85 48.238 27.85 48.237-27.85-48.237-27.85Z"/>
    <path fill="#65B6D6" d="m244.394 197.698 49.969 28.85v29.35l-49.969-28.85v-29.35Zm.866 1.5v27.35l48.237 27.85v-27.35l-48.237-27.85Z"/>
    <path fill="#65B6D6" d="m293.497 226.548 49.969-28.85v29.35l-49.969 28.85v-29.35Zm.866.5v27.35l48.237-27.85v-27.35l-48.237 27.85Z"/>
    <path fill="#65B6D6" d="m293.93 254.648 49.969 28.85-49.969 28.849-49.969-28.849 49.969-28.85Zm0 1-48.237 27.85 48.237 27.849 48.237-27.849-48.237-27.85ZM392.136-.5l49.969 28.85-49.969 28.85-49.969-28.85L392.136-.5Zm0 1-48.237 27.85 48.237 27.85 48.237-27.85L392.136.5Z"/>
    <path fill="#65B6D6" d="m342.599 27.6 49.969 28.85V85.8l-49.969-28.85V27.6Zm.866 1.5v27.35l48.237 27.85V56.95L343.465 29.1Z"/>
    <path fill="#65B6D6" d="m391.703 56.45 49.969-28.85v29.35L391.703 85.8V56.45Zm.866.5V84.3l48.237-27.85V29.1l-48.237 27.85Z"/>
    <path fill="#65B6D6" d="m392.136 84.55 49.969 28.849-49.969 28.85-49.969-28.85 49.969-28.85Zm0 1-48.237 27.849 48.237 27.85 48.237-27.85-48.237-27.85Z"/>
    <path fill="#65B6D6" d="m342.6 112.649 49.969 28.85v29.35l-49.969-28.85v-29.35Zm.866 1.5v27.35l48.237 27.85v-27.35l-48.237-27.85Z"/>
    <path fill="#65B6D6" d="m391.703 141.499 49.969-28.85v29.35l-49.969 28.85v-29.35Zm.866.5v27.35l48.237-27.85v-27.35l-48.237 27.85Z"/>
    <path fill="#65B6D6" d="m392.136 169.598 49.969 28.85-49.969 28.85-49.969-28.85 49.969-28.85Zm0 1-48.237 27.85 48.237 27.85 48.237-27.85-48.237-27.85Z"/>
    <path fill="#65B6D6" d="m342.599 197.698 49.969 28.85v29.35l-49.969-28.85v-29.35Zm.866 1.5v27.35l48.237 27.85v-27.35l-48.237-27.85Z"/>
    <path fill="#65B6D6" d="m391.703 226.548 49.969-28.85v29.35l-49.969 28.85v-29.35Zm.866.5v27.35l48.237-27.85v-27.35l-48.237 27.85Z"/>
    <path fill="#65B6D6" d="m392.136 254.648 49.969 28.85-49.969 28.849-49.969-28.849 49.969-28.85Zm0 1-48.237 27.85 48.237 27.849 48.237-27.849-48.237-27.85ZM490.342-.5l49.969 28.85-49.969 28.85-49.969-28.85L490.342-.5Zm0 1-48.237 27.85 48.237 27.85 48.237-27.85L490.342.5Z"/>
    <path fill="#65B6D6" d="m440.806 27.6 49.969 28.85V85.8l-49.969-28.85V27.6Zm.866 1.5v27.35l48.237 27.85V56.95L441.672 29.1Z"/>
    <path fill="#65B6D6" d="m489.91 56.45 49.969-28.85v29.35L489.91 85.8V56.45Zm.866.5V84.3l48.237-27.85V29.1l-48.237 27.85Z"/>
    <path fill="#65B6D6" d="m490.342 84.55 49.969 28.849-49.969 28.85-49.969-28.85 49.969-28.85Zm0 1-48.237 27.849 48.237 27.85 48.237-27.85-48.237-27.85Z"/>
    <path fill="#65B6D6" d="m440.806 112.649 49.969 28.85v29.35l-49.969-28.85v-29.35Zm.866 1.5v27.35l48.237 27.85v-27.35l-48.237-27.85Z"/>
    <path fill="#65B6D6" d="m489.909 141.499 49.969-28.85v29.35l-49.969 28.85v-29.35Zm.866.5v27.35l48.237-27.85v-27.35l-48.237 27.85Z"/>
    <path fill="#65B6D6" d="m490.342 169.599 49.969 28.85-49.969 28.85-49.969-28.85 49.969-28.85Zm0 1-48.237 27.85 48.237 27.85 48.237-27.85-48.237-27.85Z"/>
    <path fill="#65B6D6" d="m440.806 197.699 49.969 28.85v29.35l-49.969-28.85v-29.35Zm.866 1.5v27.35l48.237 27.85v-27.35l-48.237-27.85Z"/>
    <path fill="#65B6D6" d="m489.91 226.548 49.969-28.85v29.35l-49.969 28.85v-29.35Zm.866.5v27.35l48.237-27.85v-27.35l-48.237 27.85Z"/>
    <path fill="#65B6D6" d="m490.342 254.648 49.969 28.85-49.969 28.849-49.969-28.849 49.969-28.85Zm0 1-48.237 27.85 48.237 27.849 48.237-27.849-48.237-27.85Z"/>
</svg>
