<svg xmlns="http://www.w3.org/2000/svg" width="740" height="93" fill="none" viewBox="0 0 740 93">
    <g stroke="#65B6D6">
        <path d="M0 0h30.733v30.733H0z" transform="matrix(.86603 .5 -.86603 .5 23.616 1)"/>
        <path d="M0 0h30.733v15.367H0z" transform="matrix(.86603 .5 0 1 -3 16.366)"/>
        <path d="M0 0h30.733v15.367H0z" transform="matrix(.86603 -.5 0 1 23.616 31.733)"/>
        <path d="M0 0h30.733v30.733H0z" transform="matrix(.86603 .5 -.86603 .5 23.616 47.1)"/>
        <path d="M0 0h30.733v15.367H0z" transform="matrix(.86603 .5 0 1 -3 62.467)"/>
        <path d="M0 0h30.733v15.367H0z" transform="matrix(.86603 -.5 0 1 23.616 77.833)"/>
        <path d="M0 0h30.733v30.733H0z" transform="matrix(.86603 .5 -.86603 .5 23.616 93.2)"/>
        <path d="M0 0h30.733v30.733H0z" transform="matrix(.86603 .5 -.86603 .5 76.848 1)"/>
        <path d="M0 0h30.733v15.367H0z" transform="matrix(.86603 .5 0 1 50.232 16.366)"/>
        <path d="M0 0h30.733v15.367H0z" transform="matrix(.86603 -.5 0 1 76.848 31.733)"/>
        <path d="M0 0h30.733v30.733H0z" transform="matrix(.86603 .5 -.86603 .5 76.848 47.1)"/>
        <path d="M0 0h30.733v15.367H0z" transform="matrix(.86603 .5 0 1 50.232 62.467)"/>
        <path d="M0 0h30.733v15.367H0z" transform="matrix(.86603 -.5 0 1 76.848 77.833)"/>
        <path d="M0 0h30.733v30.733H0z" transform="matrix(.86603 .5 -.86603 .5 76.848 93.2)"/>
        <path d="M0 0h30.733v30.733H0z" transform="matrix(.86603 .5 -.86603 .5 130.079 1)"/>
        <path d="M0 0h30.733v15.367H0z" transform="matrix(.86603 .5 0 1 103.463 16.366)"/>
        <path d="M0 0h30.733v15.367H0z" transform="matrix(.86603 -.5 0 1 130.079 31.733)"/>
        <path d="M0 0h30.733v30.733H0z" transform="matrix(.86603 .5 -.86603 .5 130.079 47.1)"/>
        <path d="M0 0h30.733v15.367H0z" transform="matrix(.86603 .5 0 1 103.463 62.467)"/>
        <path d="M0 0h30.733v15.367H0z" transform="matrix(.86603 -.5 0 1 130.079 77.833)"/>
        <path d="M0 0h30.733v30.733H0z" transform="matrix(.86603 .5 -.86603 .5 130.079 93.2)"/>
        <path d="M0 0h30.733v30.733H0z" transform="matrix(.86603 .5 -.86603 .5 183.311 1)"/>
        <path d="M0 0h30.733v15.367H0z" transform="matrix(.86603 .5 0 1 156.695 16.366)"/>
        <path d="M0 0h30.733v15.367H0z" transform="matrix(.86603 -.5 0 1 183.311 31.733)"/>
        <path d="M0 0h30.733v30.733H0z" transform="matrix(.86603 .5 -.86603 .5 183.311 47.1)"/>
        <path d="M0 0h30.733v15.367H0z" transform="matrix(.86603 .5 0 1 156.695 62.467)"/>
        <path d="M0 0h30.733v15.367H0z" transform="matrix(.86603 -.5 0 1 183.311 77.833)"/>
        <path d="M0 0h30.733v30.733H0z" transform="matrix(.86603 .5 -.86603 .5 183.311 93.2)"/>
        <path d="M0 0h30.733v30.733H0z" transform="matrix(.86603 .5 -.86603 .5 236.543 1)"/>
        <path d="M0 0h30.733v15.367H0z" transform="matrix(.86603 .5 0 1 209.927 16.366)"/>
        <path d="M0 0h30.733v15.367H0z" transform="matrix(.86603 -.5 0 1 236.543 31.733)"/>
        <path d="M0 0h30.733v30.733H0z" transform="matrix(.86603 .5 -.86603 .5 236.543 47.1)"/>
        <path d="M0 0h30.733v15.367H0z" transform="matrix(.86603 .5 0 1 209.927 62.467)"/>
        <path d="M0 0h30.733v15.367H0z" transform="matrix(.86603 -.5 0 1 236.543 77.833)"/>
        <path d="M0 0h30.733v30.733H0z" transform="matrix(.86603 .5 -.86603 .5 236.543 93.2)"/>
        <path d="M0 0h30.733v30.733H0z" transform="matrix(.86603 .5 -.86603 .5 289.774 47.1)"/>
        <path d="M0 0h30.733v15.367H0z" transform="matrix(.86603 .5 0 1 263.159 62.467)"/>
        <path d="M0 0h30.733v15.367H0z" transform="matrix(.86603 -.5 0 1 289.774 77.833)"/>
        <path d="M0 0h30.733v30.733H0z" transform="matrix(.86603 .5 -.86603 .5 289.774 93.2)"/>
        <path d="M0 0h30.733v30.733H0z" transform="matrix(.86603 .5 -.86603 .5 289.774 1)"/>
        <path d="M0 0h30.733v15.367H0z" transform="matrix(.86603 .5 0 1 263.159 16.366)"/>
        <path d="M0 0h30.733v15.367H0z" transform="matrix(.86603 -.5 0 1 289.775 31.733)"/>
        <path d="M0 0h30.733v30.733H0z" transform="matrix(.86603 .5 -.86603 .5 343.006 1)"/>
        <path d="M0 0h30.733v15.367H0z" transform="matrix(.86603 .5 0 1 316.39 16.366)"/>
        <path d="M0 0h30.733v15.367H0z" transform="matrix(.86603 -.5 0 1 343.006 31.733)"/>
        <path d="M0 0h30.733v30.733H0z" transform="matrix(.86603 .5 -.86603 .5 343.006 47.1)"/>
        <path d="M0 0h30.733v15.367H0z" transform="matrix(.86603 .5 0 1 316.39 62.466)"/>
        <path d="M0 0h30.733v15.367H0z" transform="matrix(.86603 -.5 0 1 343.006 77.833)"/>
        <path d="M0 0h30.733v30.733H0z" transform="matrix(.86603 .5 -.86603 .5 343.006 93.2)"/>
        <path d="M0 0h30.733v30.733H0z" transform="matrix(.86603 .5 -.86603 .5 396.116 1)"/>
        <path d="M0 0h30.733v15.367H0z" transform="matrix(.86603 .5 0 1 369.5 16.366)"/>
        <path d="M0 0h30.733v15.367H0z" transform="matrix(.86603 -.5 0 1 396.116 31.733)"/>
        <path d="M0 0h30.733v30.733H0z" transform="matrix(.86603 .5 -.86603 .5 396.116 47.1)"/>
        <path d="M0 0h30.733v15.367H0z" transform="matrix(.86603 .5 0 1 369.5 62.467)"/>
        <path d="M0 0h30.733v15.367H0z" transform="matrix(.86603 -.5 0 1 396.116 77.833)"/>
        <path d="M0 0h30.733v30.733H0z" transform="matrix(.86603 .5 -.86603 .5 396.116 93.2)"/>
        <path d="M0 0h30.733v30.733H0z" transform="matrix(.86603 .5 -.86603 .5 449.348 1)"/>
        <path d="M0 0h30.733v15.367H0z" transform="matrix(.86603 .5 0 1 422.732 16.366)"/>
        <path d="M0 0h30.733v15.367H0z" transform="matrix(.86603 -.5 0 1 449.348 31.733)"/>
        <path d="M0 0h30.733v30.733H0z" transform="matrix(.86603 .5 -.86603 .5 449.348 47.1)"/>
        <path d="M0 0h30.733v15.367H0z" transform="matrix(.86603 .5 0 1 422.732 62.467)"/>
        <path d="M0 0h30.733v15.367H0z" transform="matrix(.86603 -.5 0 1 449.348 77.833)"/>
        <path d="M0 0h30.733v30.733H0z" transform="matrix(.86603 .5 -.86603 .5 449.348 93.2)"/>
        <path d="M0 0h30.733v30.733H0z" transform="matrix(.86603 .5 -.86603 .5 502.579 1)"/>
        <path d="M0 0h30.733v15.367H0z" transform="matrix(.86603 .5 0 1 475.964 16.366)"/>
        <path d="M0 0h30.733v15.367H0z" transform="matrix(.86603 -.5 0 1 502.579 31.733)"/>
        <path d="M0 0h30.733v30.733H0z" transform="matrix(.86603 .5 -.86603 .5 502.579 47.1)"/>
        <path d="M0 0h30.733v15.367H0z" transform="matrix(.86603 .5 0 1 475.963 62.467)"/>
        <path d="M0 0h30.733v15.367H0z" transform="matrix(.86603 -.5 0 1 502.579 77.833)"/>
        <path d="M0 0h30.733v30.733H0z" transform="matrix(.86603 .5 -.86603 .5 502.579 93.2)"/>
        <path d="M0 0h30.733v30.733H0z" transform="matrix(.86603 .5 -.86603 .5 555.811 1)"/>
        <path d="M0 0h30.733v15.367H0z" transform="matrix(.86603 .5 0 1 529.195 16.366)"/>
        <path d="M0 0h30.733v15.367H0z" transform="matrix(.86603 -.5 0 1 555.811 31.733)"/>
        <path d="M0 0h30.733v30.733H0z" transform="matrix(.86603 .5 -.86603 .5 555.811 47.1)"/>
        <path d="M0 0h30.733v15.367H0z" transform="matrix(.86603 .5 0 1 529.195 62.467)"/>
        <path d="M0 0h30.733v15.367H0z" transform="matrix(.86603 -.5 0 1 555.811 77.833)"/>
        <path d="M0 0h30.733v30.733H0z" transform="matrix(.86603 .5 -.86603 .5 555.811 93.2)"/>
        <path d="M0 0h30.733v30.733H0z" transform="matrix(.86603 .5 -.86603 .5 609.043 1)"/>
        <path d="M0 0h30.733v15.367H0z" transform="matrix(.86603 .5 0 1 582.427 16.366)"/>
        <path d="M0 0h30.733v15.367H0z" transform="matrix(.86603 -.5 0 1 609.043 31.733)"/>
        <path d="M0 0h30.733v30.733H0z" transform="matrix(.86603 .5 -.86603 .5 609.043 47.1)"/>
        <path d="M0 0h30.733v15.367H0z" transform="matrix(.86603 .5 0 1 582.427 62.467)"/>
        <path d="M0 0h30.733v15.367H0z" transform="matrix(.86603 -.5 0 1 609.043 77.833)"/>
        <path d="M0 0h30.733v30.733H0z" transform="matrix(.86603 .5 -.86603 .5 609.043 93.2)"/>
        <path d="M0 0h30.733v30.733H0z" transform="matrix(.86603 .5 -.86603 .5 662.274 47.1)"/>
        <path d="M0 0h30.733v15.367H0z" transform="matrix(.86603 .5 0 1 635.659 62.467)"/>
        <path d="M0 0h30.733v15.367H0z" transform="matrix(.86603 -.5 0 1 662.274 77.833)"/>
        <path d="M0 0h30.733v30.733H0z" transform="matrix(.86603 .5 -.86603 .5 662.274 93.2)"/>
        <path d="M0 0h30.733v30.733H0z" transform="matrix(.86603 .5 -.86603 .5 662.274 1)"/>
        <path d="M0 0h30.733v15.367H0z" transform="matrix(.86603 .5 0 1 635.659 16.366)"/>
        <path d="M0 0h30.733v15.367H0z" transform="matrix(.86603 -.5 0 1 662.275 31.733)"/>
        <path d="M0 0h30.733v30.733H0z" transform="matrix(.86603 .5 -.86603 .5 715.506 1)"/>
        <path d="M0 0h30.733v15.367H0z" transform="matrix(.86603 .5 0 1 688.89 16.366)"/>
        <path d="M0 0h30.733v15.367H0z" transform="matrix(.86603 -.5 0 1 715.506 31.733)"/>
        <path d="M0 0h30.733v30.733H0z" transform="matrix(.86603 .5 -.86603 .5 715.506 47.1)"/>
        <path d="M0 0h30.733v15.367H0z" transform="matrix(.86603 .5 0 1 688.89 62.466)"/>
        <path d="M0 0h30.733v15.367H0z" transform="matrix(.86603 -.5 0 1 715.506 77.833)"/>
        <path d="M0 0h30.733v30.733H0z" transform="matrix(.86603 .5 -.86603 .5 715.506 93.2)"/>
    </g>
</svg>
