<svg xmlns="http://www.w3.org/2000/svg" width="740" height="331" fill="none" viewBox="0 0 740 331">
    <g stroke="#65B6D6">
        <path d="M0 0h32.647v32.647H0z" transform="matrix(.86603 .5 -.86603 .5 29.273 -13)"/>
        <path d="M0 0h32.647v16.323H0z" transform="matrix(.86603 .5 0 1 1 3.323)"/>
        <path d="M0 0h32.647v16.323H0z" transform="matrix(.86603 -.5 0 1 29.273 19.646)"/>
        <path d="M0 0h32.647v32.647H0z" transform="matrix(.86603 .5 -.86603 .5 29.273 35.97)"/>
        <path d="M0 0h32.647v16.323H0z" transform="matrix(.86603 .5 0 1 1 52.293)"/>
        <path d="M0 0h32.647v16.323H0z" transform="matrix(.86603 -.5 0 1 29.273 68.617)"/>
        <path d="M0 0h32.647v32.647H0z" transform="matrix(.86603 .5 -.86603 .5 29.273 84.94)"/>
        <path d="M0 0h32.647v16.323H0z" transform="matrix(.86603 .5 0 1 1 101.262)"/>
        <path d="M0 0h32.647v16.323H0z" transform="matrix(.86603 -.5 0 1 29.273 117.586)"/>
        <path d="M0 0h32.647v32.647H0z" transform="matrix(.86603 .5 -.86603 .5 29.273 133.909)"/>
        <path d="M0 0h32.647v16.323H0z" transform="matrix(.86603 .5 0 1 1 150.232)"/>
        <path d="M0 0h32.647v16.323H0z" transform="matrix(.86603 -.5 0 1 29.273 166.556)"/>
        <path d="M0 0h32.647v32.647H0z" transform="matrix(.86603 .5 -.86603 .5 29.273 182.879)"/>
        <path d="M0 0h32.647v16.323H0z" transform="matrix(.86603 .5 0 1 1 199.202)"/>
        <path d="M0 0h32.647v16.323H0z" transform="matrix(.86603 -.5 0 1 29.273 215.525)"/>
        <path d="M0 0h32.647v32.647H0z" transform="matrix(.86603 .5 -.86603 .5 29.273 231.852)"/>
        <path d="M0 0h32.647v16.323H0z" transform="matrix(.86603 .5 0 1 1 248.175)"/>
        <path d="M0 0h32.647v16.323H0z" transform="matrix(.86603 -.5 0 1 29.273 264.499)"/>
        <path d="M0 0h32.647v32.647H0z" transform="matrix(.86603 .5 -.86603 .5 29.273 280.822)"/>
        <path d="M0 0h32.647v16.323H0z" transform="matrix(.86603 .5 0 1 1 297.145)"/>
        <path d="M0 0h32.647v16.323H0z" transform="matrix(.86603 -.5 0 1 29.273 313.468)"/>
        <path d="M0 0h32.647v32.647H0z" transform="matrix(.86603 .5 -.86603 .5 85.818 -13)"/>
        <path d="M0 0h32.647v16.323H0z" transform="matrix(.86603 .5 0 1 57.545 3.323)"/>
        <path d="M0 0h32.647v16.323H0z" transform="matrix(.86603 -.5 0 1 85.818 19.646)"/>
        <path d="M0 0h32.647v32.647H0z" transform="matrix(.86603 .5 -.86603 .5 85.818 35.97)"/>
        <path d="M0 0h32.647v16.323H0z" transform="matrix(.86603 .5 0 1 57.545 52.293)"/>
        <path d="M0 0h32.647v16.323H0z" transform="matrix(.86603 -.5 0 1 85.818 68.616)"/>
        <path d="M0 0h32.647v32.647H0z" transform="matrix(.86603 .5 -.86603 .5 85.818 84.94)"/>
        <path d="M0 0h32.647v16.323H0z" transform="matrix(.86603 .5 0 1 57.546 101.264)"/>
        <path d="M0 0h32.647v16.323H0z" transform="matrix(.86603 -.5 0 1 85.818 117.586)"/>
        <path d="M0 0h32.647v32.647H0z" transform="matrix(.86603 .5 -.86603 .5 85.818 133.909)"/>
        <path d="M0 0h32.647v16.323H0z" transform="matrix(.86603 .5 0 1 57.546 150.232)"/>
        <path d="M0 0h32.647v16.323H0z" transform="matrix(.86603 -.5 0 1 85.818 166.556)"/>
        <path d="M0 0h32.647v32.647H0z" transform="matrix(.86603 .5 -.86603 .5 85.818 182.879)"/>
        <path d="M0 0h32.647v16.323H0z" transform="matrix(.86603 .5 0 1 57.545 199.203)"/>
        <path d="M0 0h32.647v16.323H0z" transform="matrix(.86603 -.5 0 1 85.818 215.526)"/>
        <path d="M0 0h32.647v32.647H0z" transform="matrix(.86603 .5 -.86603 .5 85.818 231.852)"/>
        <path d="M0 0h32.647v16.323H0z" transform="matrix(.86603 .5 0 1 57.545 248.175)"/>
        <path d="M0 0h32.647v16.323H0z" transform="matrix(.86603 -.5 0 1 85.818 264.499)"/>
        <path d="M0 0h32.647v32.647H0z" transform="matrix(.86603 .5 -.86603 .5 85.818 280.823)"/>
        <path d="M0 0h32.647v16.323H0z" transform="matrix(.86603 .5 0 1 57.545 297.146)"/>
        <path d="M0 0h32.647v16.323H0z" transform="matrix(.86603 -.5 0 1 85.818 313.469)"/>
        <path d="M0 0h32.647v32.647H0z" transform="matrix(.86603 .5 -.86603 .5 142.364 -13)"/>
        <path d="M0 0h32.647v16.323H0z" transform="matrix(.86603 .5 0 1 114.091 3.323)"/>
        <path d="M0 0h32.647v16.323H0z" transform="matrix(.86603 -.5 0 1 142.364 19.646)"/>
        <path d="M0 0h32.647v32.647H0z" transform="matrix(.86603 .5 -.86603 .5 142.364 35.97)"/>
        <path d="M0 0h32.647v16.323H0z" transform="matrix(.86603 .5 0 1 114.091 52.294)"/>
        <path d="M0 0h32.647v16.323H0z" transform="matrix(.86603 -.5 0 1 142.364 68.617)"/>
        <path d="M0 0h32.647v32.647H0z" transform="matrix(.86603 .5 -.86603 .5 142.364 84.94)"/>
        <path d="M0 0h32.647v16.323H0z" transform="matrix(.86603 .5 0 1 114.091 101.263)"/>
        <path d="M0 0h32.647v16.323H0z" transform="matrix(.86603 -.5 0 1 142.364 117.586)"/>
        <path d="M0 0h32.647v32.647H0z" transform="matrix(.86603 .5 -.86603 .5 142.364 133.909)"/>
        <path d="M0 0h32.647v16.323H0z" transform="matrix(.86603 .5 0 1 114.091 150.232)"/>
        <path d="M0 0h32.647v16.323H0z" transform="matrix(.86603 -.5 0 1 142.364 166.556)"/>
        <path d="M0 0h32.647v32.647H0z" transform="matrix(.86603 .5 -.86603 .5 142.364 182.879)"/>
        <path d="M0 0h32.647v16.323H0z" transform="matrix(.86603 .5 0 1 114.091 199.202)"/>
        <path d="M0 0h32.647v16.323H0z" transform="matrix(.86603 -.5 0 1 142.364 215.525)"/>
        <path d="M0 0h32.647v32.647H0z" transform="matrix(.86603 .5 -.86603 .5 142.364 231.852)"/>
        <path d="M0 0h32.647v16.323H0z" transform="matrix(.86603 .5 0 1 114.091 248.175)"/>
        <path d="M0 0h32.647v16.323H0z" transform="matrix(.86603 -.5 0 1 142.364 264.499)"/>
        <path d="M0 0h32.647v32.647H0z" transform="matrix(.86603 .5 -.86603 .5 142.364 280.823)"/>
        <path d="M0 0h32.647v16.323H0z" transform="matrix(.86603 .5 0 1 114.091 297.146)"/>
        <path d="M0 0h32.647v16.323H0z" transform="matrix(.86603 -.5 0 1 142.364 313.469)"/>
        <path d="M0 0h32.647v32.647H0z" transform="matrix(.86603 .5 -.86603 .5 198.909 -13)"/>
        <path d="M0 0h32.647v16.323H0z" transform="matrix(.86603 .5 0 1 170.637 3.323)"/>
        <path d="M0 0h32.647v16.323H0z" transform="matrix(.86603 -.5 0 1 198.909 19.646)"/>
        <path d="M0 0h32.647v32.647H0z" transform="matrix(.86603 .5 -.86603 .5 198.909 35.97)"/>
        <path d="M0 0h32.647v16.323H0z" transform="matrix(.86603 .5 0 1 170.636 52.293)"/>
        <path d="M0 0h32.647v16.323H0z" transform="matrix(.86603 -.5 0 1 198.909 68.616)"/>
        <path d="M0 0h32.647v32.647H0z" transform="matrix(.86603 .5 -.86603 .5 198.909 84.94)"/>
        <path d="M0 0h32.647v16.323H0z" transform="matrix(.86603 .5 0 1 170.637 101.264)"/>
        <path d="M0 0h32.647v16.323H0z" transform="matrix(.86603 -.5 0 1 198.909 117.586)"/>
        <path d="M0 0h32.647v32.647H0z" transform="matrix(.86603 .5 -.86603 .5 198.909 133.909)"/>
        <path d="M0 0h32.647v16.323H0z" transform="matrix(.86603 .5 0 1 170.637 150.232)"/>
        <path d="M0 0h32.647v16.323H0z" transform="matrix(.86603 -.5 0 1 198.909 166.556)"/>
        <path d="M0 0h32.647v32.647H0z" transform="matrix(.86603 .5 -.86603 .5 198.909 182.879)"/>
        <path d="M0 0h32.647v16.323H0z" transform="matrix(.86603 .5 0 1 170.637 199.202)"/>
        <path d="M0 0h32.647v16.323H0z" transform="matrix(.86603 -.5 0 1 198.909 215.526)"/>
        <path d="M0 0h32.647v32.647H0z" transform="matrix(.86603 .5 -.86603 .5 198.909 231.852)"/>
        <path d="M0 0h32.647v16.323H0z" transform="matrix(.86603 .5 0 1 170.636 248.175)"/>
        <path d="M0 0h32.647v16.323H0z" transform="matrix(.86603 -.5 0 1 198.909 264.499)"/>
        <path d="M0 0h32.647v32.647H0z" transform="matrix(.86603 .5 -.86603 .5 198.909 280.823)"/>
        <path d="M0 0h32.647v16.323H0z" transform="matrix(.86603 .5 0 1 170.637 297.146)"/>
        <path d="M0 0h32.647v16.323H0z" transform="matrix(.86603 -.5 0 1 198.909 313.469)"/>
        <path d="M0 0h32.647v32.647H0z" transform="matrix(.86603 .5 -.86603 .5 255.455 -12.999)"/>
        <path d="M0 0h32.647v16.323H0z" transform="matrix(.86603 .5 0 1 227.182 3.323)"/>
        <path d="M0 0h32.647v16.323H0z" transform="matrix(.86603 -.5 0 1 255.455 19.646)"/>
        <path d="M0 0h32.647v32.647H0z" transform="matrix(.86603 .5 -.86603 .5 255.455 35.97)"/>
        <path d="M0 0h32.647v16.323H0z" transform="matrix(.86603 .5 0 1 227.182 52.293)"/>
        <path d="M0 0h32.647v16.323H0z" transform="matrix(.86603 -.5 0 1 255.455 68.617)"/>
        <path d="M0 0h32.647v32.647H0z" transform="matrix(.86603 .5 -.86603 .5 255.455 84.94)"/>
        <path d="M0 0h32.647v16.323H0z" transform="matrix(.86603 .5 0 1 227.182 101.264)"/>
        <path d="M0 0h32.647v16.323H0z" transform="matrix(.86603 -.5 0 1 255.455 117.586)"/>
        <path d="M0 0h32.647v32.647H0z" transform="matrix(.86603 .5 -.86603 .5 255.455 133.909)"/>
        <path d="M0 0h32.647v16.323H0z" transform="matrix(.86603 .5 0 1 227.182 150.232)"/>
        <path d="M0 0h32.647v16.323H0z" transform="matrix(.86603 -.5 0 1 255.455 166.556)"/>
        <path d="M0 0h32.647v32.647H0z" transform="matrix(.86603 .5 -.86603 .5 255.455 182.879)"/>
        <path d="M0 0h32.647v16.323H0z" transform="matrix(.86603 .5 0 1 227.182 199.202)"/>
        <path d="M0 0h32.647v16.323H0z" transform="matrix(.86603 -.5 0 1 255.455 215.526)"/>
        <path d="M0 0h32.647v32.647H0z" transform="matrix(.86603 .5 -.86603 .5 255.455 231.852)"/>
        <path d="M0 0h32.647v16.323H0z" transform="matrix(.86603 .5 0 1 227.182 248.175)"/>
        <path d="M0 0h32.647v16.323H0z" transform="matrix(.86603 -.5 0 1 255.455 264.499)"/>
        <path d="M0 0h32.647v32.647H0z" transform="matrix(.86603 .5 -.86603 .5 255.455 280.823)"/>
        <path d="M0 0h32.647v16.323H0z" transform="matrix(.86603 .5 0 1 227.182 297.146)"/>
        <path d="M0 0h32.647v16.323H0z" transform="matrix(.86603 -.5 0 1 255.455 313.469)"/>
        <path d="M0 0h32.647v32.647H0z" transform="matrix(.86603 .5 -.86603 .5 312 -13)"/>
        <path d="M0 0h32.647v16.323H0z" transform="matrix(.86603 .5 0 1 283.727 3.323)"/>
        <path d="M0 0h32.647v16.323H0z" transform="matrix(.86603 -.5 0 1 312 19.646)"/>
        <path d="M0 0h32.647v32.647H0z" transform="matrix(.86603 .5 -.86603 .5 312 35.97)"/>
        <path d="M0 0h32.647v16.323H0z" transform="matrix(.86603 .5 0 1 283.727 52.294)"/>
        <path d="M0 0h32.647v16.323H0z" transform="matrix(.86603 -.5 0 1 312 68.617)"/>
        <path d="M0 0h32.647v32.647H0z" transform="matrix(.86603 .5 -.86603 .5 312 84.94)"/>
        <path d="M0 0h32.647v16.323H0z" transform="matrix(.86603 .5 0 1 283.727 101.262)"/>
        <path d="M0 0h32.647v16.323H0z" transform="matrix(.86603 -.5 0 1 312 117.586)"/>
        <path d="M0 0h32.647v32.647H0z" transform="matrix(.86603 .5 -.86603 .5 312 133.909)"/>
        <path d="M0 0h32.647v16.323H0z" transform="matrix(.86603 .5 0 1 283.727 150.232)"/>
        <path d="M0 0h32.647v16.323H0z" transform="matrix(.86603 -.5 0 1 312 166.556)"/>
        <path d="M0 0h32.647v32.647H0z" transform="matrix(.86603 .5 -.86603 .5 312 182.879)"/>
        <path d="M0 0h32.647v16.323H0z" transform="matrix(.86603 .5 0 1 283.727 199.202)"/>
        <path d="M0 0h32.647v16.323H0z" transform="matrix(.86603 -.5 0 1 312 215.526)"/>
        <path d="M0 0h32.647v32.647H0z" transform="matrix(.86603 .5 -.86603 .5 312 231.852)"/>
        <path d="M0 0h32.647v16.323H0z" transform="matrix(.86603 .5 0 1 283.727 248.175)"/>
        <path d="M0 0h32.647v16.323H0z" transform="matrix(.86603 -.5 0 1 312 264.499)"/>
        <path d="M0 0h32.647v32.647H0z" transform="matrix(.86603 .5 -.86603 .5 312 280.823)"/>
        <path d="M0 0h32.647v16.323H0z" transform="matrix(.86603 .5 0 1 283.727 297.146)"/>
        <path d="M0 0h32.647v16.323H0z" transform="matrix(.86603 -.5 0 1 312 313.469)"/>
        <path d="M0 0h32.647v32.647H0z" transform="matrix(.86603 .5 -.86603 .5 368.546 -13)"/>
        <path d="M0 0h32.647v16.323H0z" transform="matrix(.86603 .5 0 1 340.273 3.323)"/>
        <path d="M0 0h32.647v16.323H0z" transform="matrix(.86603 -.5 0 1 368.546 19.646)"/>
        <path d="M0 0h32.647v32.647H0z" transform="matrix(.86603 .5 -.86603 .5 368.546 35.97)"/>
        <path d="M0 0h32.647v16.323H0z" transform="matrix(.86603 .5 0 1 340.273 52.293)"/>
        <path d="M0 0h32.647v16.323H0z" transform="matrix(.86603 -.5 0 1 368.545 68.617)"/>
        <path d="M0 0h32.647v32.647H0z" transform="matrix(.86603 .5 -.86603 .5 368.546 84.94)"/>
        <path d="M0 0h32.647v16.323H0z" transform="matrix(.86603 .5 0 1 340.273 101.263)"/>
        <path d="M0 0h32.647v16.323H0z" transform="matrix(.86603 -.5 0 1 368.546 117.586)"/>
        <path d="M0 0h32.647v32.647H0z" transform="matrix(.86603 .5 -.86603 .5 368.546 133.909)"/>
        <path d="M0 0h32.647v16.323H0z" transform="matrix(.86603 .5 0 1 340.273 150.232)"/>
        <path d="M0 0h32.647v16.323H0z" transform="matrix(.86603 -.5 0 1 368.546 166.556)"/>
        <path d="M0 0h32.647v32.647H0z" transform="matrix(.86603 .5 -.86603 .5 368.546 182.879)"/>
        <path d="M0 0h32.647v16.323H0z" transform="matrix(.86603 .5 0 1 340.273 199.202)"/>
        <path d="M0 0h32.647v16.323H0z" transform="matrix(.86603 -.5 0 1 368.546 215.526)"/>
        <path d="M0 0h32.647v32.647H0z" transform="matrix(.86603 .5 -.86603 .5 368.546 231.852)"/>
        <path d="M0 0h32.647v16.323H0z" transform="matrix(.86603 .5 0 1 340.273 248.175)"/>
        <path d="M0 0h32.647v16.323H0z" transform="matrix(.86603 -.5 0 1 368.546 264.499)"/>
        <path d="M0 0h32.647v32.647H0z" transform="matrix(.86603 .5 -.86603 .5 368.546 280.823)"/>
        <path d="M0 0h32.647v16.323H0z" transform="matrix(.86603 .5 0 1 340.273 297.146)"/>
        <path d="M0 0h32.647v16.323H0z" transform="matrix(.86603 -.5 0 1 368.546 313.469)"/>
        <path d="M0 0h32.647v32.647H0z" transform="matrix(.86603 .5 -.86603 .5 425.091 -13)"/>
        <path d="M0 0h32.647v16.323H0z" transform="matrix(.86603 .5 0 1 396.818 3.323)"/>
        <path d="M0 0h32.647v16.323H0z" transform="matrix(.86603 -.5 0 1 425.091 19.646)"/>
        <path d="M0 0h32.647v32.647H0z" transform="matrix(.86603 .5 -.86603 .5 425.091 35.97)"/>
        <path d="M0 0h32.647v16.323H0z" transform="matrix(.86603 .5 0 1 396.818 52.293)"/>
        <path d="M0 0h32.647v16.323H0z" transform="matrix(.86603 -.5 0 1 425.091 68.617)"/>
        <path d="M0 0h32.647v32.647H0z" transform="matrix(.86603 .5 -.86603 .5 425.091 84.94)"/>
        <path d="M0 0h32.647v16.323H0z" transform="matrix(.86603 .5 0 1 396.818 101.262)"/>
        <path d="M0 0h32.647v16.323H0z" transform="matrix(.86603 -.5 0 1 425.091 117.585)"/>
        <path d="M0 0h32.647v32.647H0z" transform="matrix(.86603 .5 -.86603 .5 425.091 133.909)"/>
        <path d="M0 0h32.647v16.323H0z" transform="matrix(.86603 .5 0 1 396.818 150.232)"/>
        <path d="M0 0h32.647v16.323H0z" transform="matrix(.86603 -.5 0 1 425.091 166.556)"/>
        <path d="M0 0h32.647v32.647H0z" transform="matrix(.86603 .5 -.86603 .5 425.091 182.879)"/>
        <path d="M0 0h32.647v16.323H0z" transform="matrix(.86603 .5 0 1 396.818 199.202)"/>
        <path d="M0 0h32.647v16.323H0z" transform="matrix(.86603 -.5 0 1 425.091 215.525)"/>
        <path d="M0 0h32.647v32.647H0z" transform="matrix(.86603 .5 -.86603 .5 425.091 231.852)"/>
        <path d="M0 0h32.647v16.323H0z" transform="matrix(.86603 .5 0 1 396.818 248.175)"/>
        <path d="M0 0h32.647v16.323H0z" transform="matrix(.86603 -.5 0 1 425.091 264.499)"/>
        <path d="M0 0h32.647v32.647H0z" transform="matrix(.86603 .5 -.86603 .5 425.091 280.823)"/>
        <path d="M0 0h32.647v16.323H0z" transform="matrix(.86603 .5 0 1 396.818 297.146)"/>
        <path d="M0 0h32.647v16.323H0z" transform="matrix(.86603 -.5 0 1 425.091 313.469)"/>
        <path d="M0 0h32.647v32.647H0z" transform="matrix(.86603 .5 -.86603 .5 481.636 -13)"/>
        <path d="M0 0h32.647v16.323H0z" transform="matrix(.86603 .5 0 1 453.364 3.323)"/>
        <path d="M0 0h32.647v16.323H0z" transform="matrix(.86603 -.5 0 1 481.636 19.646)"/>
        <path d="M0 0h32.647v32.647H0z" transform="matrix(.86603 .5 -.86603 .5 481.637 35.97)"/>
        <path d="M0 0h32.647v16.323H0z" transform="matrix(.86603 .5 0 1 453.364 52.294)"/>
        <path d="M0 0h32.647v16.323H0z" transform="matrix(.86603 -.5 0 1 481.637 68.617)"/>
        <path d="M0 0h32.647v32.647H0z" transform="matrix(.86603 .5 -.86603 .5 481.636 84.94)"/>
        <path d="M0 0h32.647v16.323H0z" transform="matrix(.86603 .5 0 1 453.364 101.264)"/>
        <path d="M0 0h32.647v16.323H0z" transform="matrix(.86603 -.5 0 1 481.637 117.586)"/>
        <path d="M0 0h32.647v32.647H0z" transform="matrix(.86603 .5 -.86603 .5 481.636 133.909)"/>
        <path d="M0 0h32.647v16.323H0z" transform="matrix(.86603 .5 0 1 453.364 150.232)"/>
        <path d="M0 0h32.647v16.323H0z" transform="matrix(.86603 -.5 0 1 481.636 166.556)"/>
        <path d="M0 0h32.647v32.647H0z" transform="matrix(.86603 .5 -.86603 .5 481.636 182.879)"/>
        <path d="M0 0h32.647v16.323H0z" transform="matrix(.86603 .5 0 1 453.364 199.202)"/>
        <path d="M0 0h32.647v16.323H0z" transform="matrix(.86603 -.5 0 1 481.636 215.525)"/>
        <path d="M0 0h32.647v32.647H0z" transform="matrix(.86603 .5 -.86603 .5 481.637 231.852)"/>
        <path d="M0 0h32.647v16.323H0z" transform="matrix(.86603 .5 0 1 453.364 248.175)"/>
        <path d="M0 0h32.647v16.323H0z" transform="matrix(.86603 -.5 0 1 481.637 264.499)"/>
        <path d="M0 0h32.647v32.647H0z" transform="matrix(.86603 .5 -.86603 .5 481.636 280.823)"/>
        <path d="M0 0h32.647v16.323H0z" transform="matrix(.86603 .5 0 1 453.364 297.146)"/>
        <path d="M0 0h32.647v16.323H0z" transform="matrix(.86603 -.5 0 1 481.636 313.469)"/>
        <path d="M0 0h32.647v32.647H0z" transform="matrix(.86603 .5 -.86603 .5 538.182 -13)"/>
        <path d="M0 0h32.647v16.323H0z" transform="matrix(.86603 .5 0 1 509.909 3.323)"/>
        <path d="M0 0h32.647v16.323H0z" transform="matrix(.86603 -.5 0 1 538.182 19.646)"/>
        <path d="M0 0h32.647v32.647H0z" transform="matrix(.86603 .5 -.86603 .5 538.182 35.97)"/>
        <path d="M0 0h32.647v16.323H0z" transform="matrix(.86603 .5 0 1 509.909 52.294)"/>
        <path d="M0 0h32.647v16.323H0z" transform="matrix(.86603 -.5 0 1 538.182 68.617)"/>
        <path d="M0 0h32.647v32.647H0z" transform="matrix(.86603 .5 -.86603 .5 538.182 84.94)"/>
        <path d="M0 0h32.647v16.323H0z" transform="matrix(.86603 .5 0 1 509.909 101.262)"/>
        <path d="M0 0h32.647v16.323H0z" transform="matrix(.86603 -.5 0 1 538.182 117.585)"/>
        <path d="M0 0h32.647v32.647H0z" transform="matrix(.86603 .5 -.86603 .5 538.182 133.909)"/>
        <path d="M0 0h32.647v16.323H0z" transform="matrix(.86603 .5 0 1 509.909 150.233)"/>
        <path d="M0 0h32.647v16.323H0z" transform="matrix(.86603 -.5 0 1 538.182 166.556)"/>
        <path d="M0 0h32.647v32.647H0z" transform="matrix(.86603 .5 -.86603 .5 538.182 182.879)"/>
        <path d="M0 0h32.647v16.323H0z" transform="matrix(.86603 .5 0 1 509.909 199.202)"/>
        <path d="M0 0h32.647v16.323H0z" transform="matrix(.86603 -.5 0 1 538.182 215.526)"/>
        <path d="M0 0h32.647v32.647H0z" transform="matrix(.86603 .5 -.86603 .5 538.182 231.852)"/>
        <path d="M0 0h32.647v16.323H0z" transform="matrix(.86603 .5 0 1 509.909 248.175)"/>
        <path d="M0 0h32.647v16.323H0z" transform="matrix(.86603 -.5 0 1 538.182 264.499)"/>
        <path d="M0 0h32.647v32.647H0z" transform="matrix(.86603 .5 -.86603 .5 538.182 280.823)"/>
        <path d="M0 0h32.647v16.323H0z" transform="matrix(.86603 .5 0 1 509.909 297.146)"/>
        <path d="M0 0h32.647v16.323H0z" transform="matrix(.86603 -.5 0 1 538.182 313.469)"/>
        <path d="M0 0h32.647v32.647H0z" transform="matrix(.86603 .5 -.86603 .5 594.727 -13)"/>
        <path d="M0 0h32.647v16.323H0z" transform="matrix(.86603 .5 0 1 566.455 3.323)"/>
        <path d="M0 0h32.647v16.323H0z" transform="matrix(.86603 -.5 0 1 594.727 19.646)"/>
        <path d="M0 0h32.647v32.647H0z" transform="matrix(.86603 .5 -.86603 .5 594.727 35.97)"/>
        <path d="M0 0h32.647v16.323H0z" transform="matrix(.86603 .5 0 1 566.455 52.293)"/>
        <path d="M0 0h32.647v16.323H0z" transform="matrix(.86603 -.5 0 1 594.727 68.617)"/>
        <path d="M0 0h32.647v32.647H0z" transform="matrix(.86603 .5 -.86603 .5 594.727 84.94)"/>
        <path d="M0 0h32.647v16.323H0z" transform="matrix(.86603 .5 0 1 566.455 101.263)"/>
        <path d="M0 0h32.647v16.323H0z" transform="matrix(.86603 -.5 0 1 594.727 117.586)"/>
        <path d="M0 0h32.647v32.647H0z" transform="scale(1.22474 .7071) rotate(45 14.2 680.85)"/>
        <path d="M0 0h32.647v16.323H0z" transform="matrix(.86603 .5 0 1 566.455 150.232)"/>
        <path d="M0 0h32.647v16.323H0z" transform="matrix(.86603 -.5 0 1 594.727 166.556)"/>
        <path d="M0 0h32.647v32.647H0z" transform="matrix(.86603 .5 -.86603 .5 594.727 182.879)"/>
        <path d="M0 0h32.647v16.323H0z" transform="matrix(.86603 .5 0 1 566.455 199.202)"/>
        <path d="M0 0h32.647v16.323H0z" transform="matrix(.86603 -.5 0 1 594.727 215.525)"/>
        <path d="M0 0h32.647v32.647H0z" transform="scale(1.22474 .7071) rotate(45 -153 750.106)"/>
        <path d="M0 0h32.647v16.323H0z" transform="matrix(.86603 .5 0 1 566.455 248.175)"/>
        <path d="M0 0h32.647v16.323H0z" transform="matrix(.86603 -.5 0 1 594.727 264.499)"/>
        <path d="M0 0h32.647v32.647H0z" transform="matrix(.86603 .5 -.86603 .5 594.727 280.823)"/>
        <path d="M0 0h32.647v16.323H0z" transform="matrix(.86603 .5 0 1 566.455 297.146)"/>
        <path d="M0 0h32.647v16.323H0z" transform="matrix(.86603 -.5 0 1 594.727 313.469)"/>
        <path d="M0 0h32.647v32.647H0z" transform="matrix(.86603 .5 -.86603 .5 651.273 -13)"/>
        <path d="M0 0h32.647v16.323H0z" transform="matrix(.86603 .5 0 1 623 3.323)"/>
        <path d="M0 0h32.647v16.323H0z" transform="matrix(.86603 -.5 0 1 651.273 19.646)"/>
        <path d="M0 0h32.647v32.647H0z" transform="matrix(.86603 .5 -.86603 .5 651.273 35.97)"/>
        <path d="M0 0h32.647v16.323H0z" transform="matrix(.86603 .5 0 1 623 52.293)"/>
        <path d="M0 0h32.647v16.323H0z" transform="matrix(.86603 -.5 0 1 651.273 68.617)"/>
        <path d="M0 0h32.647v32.647H0z" transform="matrix(.86603 .5 -.86603 .5 651.273 84.94)"/>
        <path d="M0 0h32.647v16.323H0z" transform="matrix(.86603 .5 0 1 623 101.262)"/>
        <path d="M0 0h32.647v16.323H0z" transform="matrix(.86603 -.5 0 1 651.273 117.586)"/>
        <path d="M0 0h32.647v32.647H0z" transform="matrix(.86603 .5 -.86603 .5 651.273 133.909)"/>
        <path d="M0 0h32.647v16.323H0z" transform="matrix(.86603 .5 0 1 623 150.232)"/>
        <path d="M0 0h32.647v16.323H0z" transform="matrix(.86603 -.5 0 1 651.273 166.556)"/>
        <path d="M0 0h32.647v32.647H0z" transform="matrix(.86603 .5 -.86603 .5 651.273 182.879)"/>
        <path d="M0 0h32.647v16.323H0z" transform="matrix(.86603 .5 0 1 623 199.202)"/>
        <path d="M0 0h32.647v16.323H0z" transform="matrix(.86603 -.5 0 1 651.273 215.525)"/>
        <path d="M0 0h32.647v32.647H0z" transform="matrix(.86603 .5 -.86603 .5 651.273 231.852)"/>
        <path d="M0 0h32.647v16.323H0z" transform="matrix(.86603 .5 0 1 623 248.175)"/>
        <path d="M0 0h32.647v16.323H0z" transform="matrix(.86603 -.5 0 1 651.273 264.499)"/>
        <path d="M0 0h32.647v32.647H0z" transform="matrix(.86603 .5 -.86603 .5 651.273 280.822)"/>
        <path d="M0 0h32.647v16.323H0z" transform="matrix(.86603 .5 0 1 623 297.145)"/>
        <path d="M0 0h32.647v16.323H0z" transform="matrix(.86603 -.5 0 1 651.273 313.468)"/>
        <path d="M0 0h32.647v32.647H0z" transform="matrix(.86603 .5 -.86603 .5 707.818 -13)"/>
        <path d="M0 0h32.647v16.323H0z" transform="matrix(.86603 .5 0 1 679.545 3.323)"/>
        <path d="M0 0h32.647v16.323H0z" transform="matrix(.86603 -.5 0 1 707.818 19.646)"/>
        <path d="M0 0h32.647v32.647H0z" transform="matrix(.86603 .5 -.86603 .5 707.818 35.97)"/>
        <path d="M0 0h32.647v16.323H0z" transform="matrix(.86603 .5 0 1 679.546 52.293)"/>
        <path d="M0 0h32.647v16.323H0z" transform="matrix(.86603 -.5 0 1 707.818 68.616)"/>
        <path d="M0 0h32.647v32.647H0z" transform="matrix(.86603 .5 -.86603 .5 707.818 84.94)"/>
        <path d="M0 0h32.647v16.323H0z" transform="matrix(.86603 .5 0 1 679.546 101.264)"/>
        <path d="M0 0h32.647v16.323H0z" transform="matrix(.86603 -.5 0 1 707.818 117.586)"/>
        <path d="M0 0h32.647v32.647H0z" transform="matrix(.86603 .5 -.86603 .5 707.818 133.909)"/>
        <path d="M0 0h32.647v16.323H0z" transform="matrix(.86603 .5 0 1 679.546 150.232)"/>
        <path d="M0 0h32.647v16.323H0z" transform="matrix(.86603 -.5 0 1 707.818 166.556)"/>
        <path d="M0 0h32.647v32.647H0z" transform="matrix(.86603 .5 -.86603 .5 707.818 182.879)"/>
        <path d="M0 0h32.647v16.323H0z" transform="matrix(.86603 .5 0 1 679.546 199.203)"/>
        <path d="M0 0h32.647v16.323H0z" transform="matrix(.86603 -.5 0 1 707.818 215.526)"/>
        <path d="M0 0h32.647v32.647H0z" transform="matrix(.86603 .5 -.86603 .5 707.818 231.852)"/>
        <path d="M0 0h32.647v16.323H0z" transform="matrix(.86603 .5 0 1 679.546 248.175)"/>
        <path d="M0 0h32.647v16.323H0z" transform="matrix(.86603 -.5 0 1 707.818 264.499)"/>
        <path d="M0 0h32.647v32.647H0z" transform="matrix(.86603 .5 -.86603 .5 707.818 280.823)"/>
        <path d="M0 0h32.647v16.323H0z" transform="matrix(.86603 .5 0 1 679.546 297.146)"/>
        <path d="M0 0h32.647v16.323H0z" transform="matrix(.86603 -.5 0 1 707.818 313.469)"/>
        <path d="M0 0h32.647v32.647H0z" transform="matrix(.86603 .5 -.86603 .5 764.364 -13)"/>
        <path d="M0 0h32.647v16.323H0z" transform="matrix(.86603 .5 0 1 736.091 3.323)"/>
        <path d="M0 0h32.647v32.647H0z" transform="matrix(.86603 .5 -.86603 .5 764.364 35.97)"/>
        <path d="M0 0h32.647v16.323H0z" transform="matrix(.86603 .5 0 1 736.091 52.294)"/>
        <path d="M0 0h32.647v32.647H0z" transform="matrix(.86603 .5 -.86603 .5 764.364 84.94)"/>
        <path d="M0 0h32.647v16.323H0z" transform="matrix(.86603 .5 0 1 736.091 101.263)"/>
        <path d="M0 0h32.647v32.647H0z" transform="matrix(.86603 .5 -.86603 .5 764.364 133.909)"/>
        <path d="M0 0h32.647v16.323H0z" transform="matrix(.86603 .5 0 1 736.091 150.232)"/>
        <path d="M0 0h32.647v32.647H0z" transform="matrix(.86603 .5 -.86603 .5 764.364 182.879)"/>
        <path d="M0 0h32.647v16.323H0z" transform="matrix(.86603 .5 0 1 736.091 199.202)"/>
        <path d="M0 0h32.647v32.647H0z" transform="matrix(.86603 .5 -.86603 .5 764.364 231.852)"/>
        <path d="M0 0h32.647v16.323H0z" transform="matrix(.86603 .5 0 1 736.091 248.175)"/>
        <path d="M0 0h32.647v32.647H0z" transform="matrix(.86603 .5 -.86603 .5 764.364 280.823)"/>
        <path d="M0 0h32.647v16.323H0z" transform="matrix(.86603 .5 0 1 736.091 297.146)"/>
    </g>
</svg>
