<svg xmlns="http://www.w3.org/2000/svg" width="796" height="600" fill="none" viewBox="0 0 796 600">
    <path stroke="#65B6D6" d="M0 0h83.455v83.455H0z" transform="matrix(.86603 .5 -.86603 .5 73.275 -70)"/>
    <path stroke="#65B6D6" d="M0 0h83.455v41.728H0z" transform="matrix(.86603 .5 0 1 1 -28.272)"/>
    <path stroke="#65B6D6" d="M0 0h83.455v41.728H0z" transform="matrix(.86603 -.5 0 1 73.275 13.456)"/>
    <path stroke="#65B6D6" d="M0 0h83.455v83.455H0z" transform="matrix(.86603 .5 -.86603 .5 73.275 55.184)"/>
    <path stroke="#65B6D6" d="M0 0h83.455v41.728H0z" transform="matrix(.86603 .5 0 1 1 96.911)"/>
    <path stroke="#65B6D6" d="M0 0h83.455v41.728H0z" transform="matrix(.86603 -.5 0 1 73.275 138.639)"/>
    <path stroke="#65B6D6" d="M0 0h83.455v83.455H0z" transform="matrix(.86603 .5 -.86603 .5 73.275 180.366)"/>
    <path stroke="#65B6D6" d="M0 0h83.455v41.728H0z" transform="matrix(.86603 .5 0 1 1 222.094)"/>
    <path stroke="#65B6D6" d="M0 0h83.455v41.728H0z" transform="matrix(.86603 -.5 0 1 73.275 263.821)"/>
    <path stroke="#65B6D6" d="M0 0h83.455v83.455H0z" transform="matrix(.86603 .5 -.86603 .5 73.275 305.55)"/>
    <path stroke="#65B6D6" d="M0 0h83.455v41.728H0z" transform="matrix(.86603 .5 0 1 1 347.277)"/>
    <path stroke="#65B6D6" d="M0 0h83.455v41.728H0z" transform="matrix(.86603 -.5 0 1 73.275 389.005)"/>
    <path stroke="#65B6D6" d="M0 0h83.455v83.455H0z" transform="matrix(.86603 .5 -.86603 .5 73.275 430.732)"/>
    <path stroke="#65B6D6" d="M0 0h83.455v41.728H0z" transform="matrix(.86603 .5 0 1 1 472.46)"/>
    <path stroke="#65B6D6" d="M0 0h83.455v41.728H0z" transform="matrix(.86603 -.5 0 1 73.275 514.188)"/>
    <path stroke="#65B6D6" d="M0 0h83.455v83.455H0z" transform="matrix(.86603 .5 -.86603 .5 73.275 555.924)"/>
    <path stroke="#65B6D6" d="M0 0h83.455v41.728H0z" transform="matrix(.86603 .5 0 1 1 597.652)"/>
    <path stroke="#65B6D6" d="M0 0h83.455v41.728H0z" transform="matrix(.86603 -.5 0 1 73.275 639.379)"/>
    <path stroke="#65B6D6" d="M0 0h83.455v83.455H0z" transform="matrix(.86603 .5 -.86603 .5 217.824 -70)"/>
    <path stroke="#65B6D6" d="M0 0h83.455v41.728H0z" transform="matrix(.86603 .5 0 1 145.549 -28.272)"/>
    <path stroke="#65B6D6" d="M0 0h83.455v41.728H0z" transform="matrix(.86603 -.5 0 1 217.824 13.456)"/>
    <path stroke="#65B6D6" d="M0 0h83.455v83.455H0z" transform="matrix(.86603 .5 -.86603 .5 217.823 55.184)"/>
    <path stroke="#65B6D6" d="M0 0h83.455v41.728H0z" transform="matrix(.86603 .5 0 1 145.549 96.912)"/>
    <path stroke="#65B6D6" d="M0 0h83.455v41.728H0z" transform="matrix(.86603 -.5 0 1 217.823 138.639)"/>
    <path stroke="#65B6D6" d="M0 0h83.455v83.455H0z" transform="matrix(.86603 .5 -.86603 .5 217.824 180.366)"/>
    <path stroke="#65B6D6" d="M0 0h83.455v41.728H0z" transform="matrix(.86603 .5 0 1 145.549 222.094)"/>
    <path stroke="#65B6D6" d="M0 0h83.455v41.728H0z" transform="matrix(.86603 -.5 0 1 217.824 263.821)"/>
    <path stroke="#65B6D6" d="M0 0h83.455v83.455H0z" transform="matrix(.86603 .5 -.86603 .5 217.823 305.549)"/>
    <path stroke="#65B6D6" d="M0 0h83.455v41.728H0z" transform="matrix(.86603 .5 0 1 145.549 347.277)"/>
    <path stroke="#65B6D6" d="M0 0h83.455v41.728H0z" transform="matrix(.86603 -.5 0 1 217.824 389.005)"/>
    <path stroke="#65B6D6" d="M0 0h83.455v83.455H0z" transform="matrix(.86603 .5 -.86603 .5 217.824 430.733)"/>
    <path stroke="#65B6D6" d="M0 0h83.455v41.728H0z" transform="matrix(.86603 .5 0 1 145.549 472.46)"/>
    <path stroke="#65B6D6" d="M0 0h83.455v41.728H0z" transform="matrix(.86603 -.5 0 1 217.824 514.188)"/>
    <path stroke="#65B6D6" d="M0 0h83.455v83.455H0z" transform="matrix(.86603 .5 -.86603 .5 217.824 555.924)"/>
    <path stroke="#65B6D6" d="M0 0h83.455v41.728H0z" transform="matrix(.86603 .5 0 1 145.549 597.651)"/>
    <path stroke="#65B6D6" d="M0 0h83.455v41.728H0z" transform="matrix(.86603 -.5 0 1 217.824 639.379)"/>
    <path stroke="#65B6D6" d="M0 0h83.455v83.455H0z" transform="matrix(.86603 .5 -.86603 .5 362.373 -70)"/>
    <path stroke="#65B6D6" d="M0 0h83.455v41.728H0z" transform="matrix(.86603 .5 0 1 290.098 -28.271)"/>
    <path stroke="#65B6D6" d="M0 0h83.455v41.728H0z" transform="matrix(.86603 -.5 0 1 362.373 13.456)"/>
    <path stroke="#65B6D6" d="M0 0h83.455v83.455H0z" transform="matrix(.86603 .5 -.86603 .5 362.373 55.184)"/>
    <path stroke="#65B6D6" d="M0 0h83.455v41.728H0z" transform="matrix(.86603 .5 0 1 290.098 96.912)"/>
    <path stroke="#65B6D6" d="M0 0h83.455v41.728H0z" transform="matrix(.86603 -.5 0 1 362.373 138.639)"/>
    <path stroke="#65B6D6" d="M0 0h83.455v83.455H0z" transform="matrix(.86603 .5 -.86603 .5 362.373 180.366)"/>
    <path stroke="#65B6D6" d="M0 0h83.455v41.728H0z" transform="matrix(.86603 .5 0 1 290.098 222.094)"/>
    <path stroke="#65B6D6" d="M0 0h83.455v41.728H0z" transform="matrix(.86603 -.5 0 1 362.373 263.821)"/>
    <path stroke="#65B6D6" d="M0 0h83.455v83.455H0z" transform="matrix(.86603 .5 -.86603 .5 362.373 305.55)"/>
    <path stroke="#65B6D6" d="M0 0h83.455v41.728H0z" transform="matrix(.86603 .5 0 1 290.098 347.277)"/>
    <path stroke="#65B6D6" d="M0 0h83.455v41.728H0z" transform="matrix(.86603 -.5 0 1 362.373 389.005)"/>
    <path stroke="#65B6D6" d="M0 0h83.455v83.455H0z" transform="matrix(.86603 .5 -.86603 .5 362.373 430.732)"/>
    <path stroke="#65B6D6" d="M0 0h83.455v41.728H0z" transform="matrix(.86603 .5 0 1 290.098 472.46)"/>
    <path stroke="#65B6D6" d="M0 0h83.455v41.728H0z" transform="matrix(.86603 -.5 0 1 362.373 514.188)"/>
    <path stroke="#65B6D6" d="M0 0h83.455v83.455H0z" transform="matrix(.86603 .5 -.86603 .5 362.373 555.924)"/>
    <path stroke="#65B6D6" d="M0 0h83.455v41.728H0z" transform="matrix(.86603 .5 0 1 290.099 597.651)"/>
    <path stroke="#65B6D6" d="M0 0h83.455v41.728H0z" transform="matrix(.86603 -.5 0 1 362.373 639.379)"/>
    <path stroke="#65B6D6" d="M0 0h83.455v83.455H0z" transform="matrix(.86603 .5 -.86603 .5 506.922 -70)"/>
    <path stroke="#65B6D6" d="M0 0h83.455v41.728H0z" transform="matrix(.86603 .5 0 1 434.647 -28.271)"/>
    <path stroke="#65B6D6" d="M0 0h83.455v41.728H0z" transform="matrix(.86603 -.5 0 1 506.922 13.456)"/>
    <path stroke="#65B6D6" d="M0 0h83.455v83.455H0z" transform="matrix(.86603 .5 -.86603 .5 506.922 55.184)"/>
    <path stroke="#65B6D6" d="M0 0h83.455v41.728H0z" transform="matrix(.86603 .5 0 1 434.647 96.911)"/>
    <path stroke="#65B6D6" d="M0 0h83.455v41.728H0z" transform="matrix(.86603 -.5 0 1 506.922 138.639)"/>
    <path stroke="#65B6D6" d="M0 0h83.455v83.455H0z" transform="matrix(.86603 .5 -.86603 .5 506.922 180.366)"/>
    <path stroke="#65B6D6" d="M0 0h83.455v41.728H0z" transform="matrix(.86603 .5 0 1 434.647 222.094)"/>
    <path stroke="#65B6D6" d="M0 0h83.455v41.728H0z" transform="matrix(.86603 -.5 0 1 506.922 263.821)"/>
    <path stroke="#65B6D6" d="M0 0h83.455v83.455H0z" transform="matrix(.86603 .5 -.86603 .5 506.922 305.549)"/>
    <path stroke="#65B6D6" d="M0 0h83.455v41.728H0z" transform="matrix(.86603 .5 0 1 434.648 347.277)"/>
    <path stroke="#65B6D6" d="M0 0h83.455v41.728H0z" transform="matrix(.86603 -.5 0 1 506.922 389.005)"/>
    <path stroke="#65B6D6" d="M0 0h83.455v83.455H0z" transform="matrix(.86603 .5 -.86603 .5 506.922 430.732)"/>
    <path stroke="#65B6D6" d="M0 0h83.455v41.728H0z" transform="matrix(.86603 .5 0 1 434.648 472.46)"/>
    <path stroke="#65B6D6" d="M0 0h83.455v41.728H0z" transform="matrix(.86603 -.5 0 1 506.922 514.188)"/>
    <path stroke="#65B6D6" d="M0 0h83.455v83.455H0z" transform="matrix(.86603 .5 -.86603 .5 506.922 555.925)"/>
    <path stroke="#65B6D6" d="M0 0h83.455v41.728H0z" transform="matrix(.86603 .5 0 1 434.648 597.653)"/>
    <path stroke="#65B6D6" d="M0 0h83.455v41.728H0z" transform="matrix(.86603 -.5 0 1 506.922 639.381)"/>
    <path stroke="#65B6D6" d="M0 0h83.455v83.455H0z" transform="matrix(.86603 .5 -.86603 .5 651.471 -69.999)"/>
    <path stroke="#65B6D6" d="M0 0h83.455v41.728H0z" transform="matrix(.86603 .5 0 1 579.196 -28.271)"/>
    <path stroke="#65B6D6" d="M0 0h83.455v41.728H0z" transform="matrix(.86603 -.5 0 1 651.471 13.456)"/>
    <path stroke="#65B6D6" d="M0 0h83.455v83.455H0z" transform="matrix(.86603 .5 -.86603 .5 651.471 55.184)"/>
    <path stroke="#65B6D6" d="M0 0h83.455v41.728H0z" transform="matrix(.86603 .5 0 1 579.196 96.911)"/>
    <path stroke="#65B6D6" d="M0 0h83.455v41.728H0z" transform="matrix(.86603 -.5 0 1 651.471 138.639)"/>
    <path stroke="#65B6D6" d="M0 0h83.455v83.455H0z" transform="matrix(.86603 .5 -.86603 .5 651.471 180.366)"/>
    <path stroke="#65B6D6" d="M0 0h83.455v41.728H0z" transform="matrix(.86603 .5 0 1 579.196 222.094)"/>
    <path stroke="#65B6D6" d="M0 0h83.455v41.728H0z" transform="matrix(.86603 -.5 0 1 651.471 263.822)"/>
    <path stroke="#65B6D6" d="M0 0h83.455v83.455H0z" transform="matrix(.86603 .5 -.86603 .5 651.47 305.551)"/>
    <path stroke="#65B6D6" d="M0 0h83.455v41.728H0z" transform="matrix(.86603 .5 0 1 579.196 347.277)"/>
    <path stroke="#65B6D6" d="M0 0h83.455v41.728H0z" transform="matrix(.86603 -.5 0 1 651.47 389.005)"/>
    <path stroke="#65B6D6" d="M0 0h83.455v83.455H0z" transform="matrix(.86603 .5 -.86603 .5 651.471 430.732)"/>
    <path stroke="#65B6D6" d="M0 0h83.455v41.728H0z" transform="matrix(.86603 .5 0 1 579.196 472.46)"/>
    <path stroke="#65B6D6" d="M0 0h83.455v41.728H0z" transform="matrix(.86603 -.5 0 1 651.471 514.188)"/>
    <path stroke="#65B6D6" d="M0 0h83.455v83.455H0z" transform="matrix(.86603 .5 -.86603 .5 651.471 555.924)"/>
    <path stroke="#65B6D6" d="M0 0h83.455v41.728H0z" transform="matrix(.86603 .5 0 1 579.196 597.651)"/>
    <path stroke="#65B6D6" d="M0 0h83.455v41.728H0z" transform="matrix(.86603 -.5 0 1 651.47 639.379)"/>
    <path stroke="#65B6D6" d="M0 0h83.455v83.455H0z" transform="matrix(.86603 .5 -.86603 .5 796.019 -70)"/>
    <path stroke="#65B6D6" d="M0 0h83.455v41.728H0z" transform="matrix(.86603 .5 0 1 723.745 -28.272)"/>
    <path stroke="#65B6D6" d="M0 0h83.455v41.728H0z" transform="matrix(.86603 -.5 0 1 796.019 13.456)"/>
    <path stroke="#65B6D6" d="M0 0h83.455v83.455H0z" transform="matrix(.86603 .5 -.86603 .5 796.019 55.184)"/>
    <path stroke="#65B6D6" d="M0 0h83.455v41.728H0z" transform="matrix(.86603 .5 0 1 723.745 96.912)"/>
    <path stroke="#65B6D6" d="M0 0h83.455v41.728H0z" transform="matrix(.86603 -.5 0 1 796.019 138.639)"/>
    <path stroke="#65B6D6" d="M0 0h83.455v83.455H0z" transform="matrix(.86603 .5 -.86603 .5 796.019 180.366)"/>
    <path stroke="#65B6D6" d="M0 0h83.455v41.728H0z" transform="matrix(.86603 .5 0 1 723.745 222.094)"/>
    <path stroke="#65B6D6" d="M0 0h83.455v41.728H0z" transform="matrix(.86603 -.5 0 1 796.019 263.821)"/>
    <path stroke="#65B6D6" d="M0 0h83.455v83.455H0z" transform="matrix(.86603 .5 -.86603 .5 796.019 305.55)"/>
    <path stroke="#65B6D6" d="M0 0h83.455v41.728H0z" transform="matrix(.86603 .5 0 1 723.745 347.278)"/>
    <path stroke="#65B6D6" d="M0 0h83.455v41.728H0z" transform="matrix(.86603 -.5 0 1 796.019 389.005)"/>
    <path stroke="#65B6D6" d="M0 0h83.455v83.455H0z" transform="matrix(.86603 .5 -.86603 .5 796.019 430.732)"/>
    <path stroke="#65B6D6" d="M0 0h83.455v41.728H0z" transform="matrix(.86603 .5 0 1 723.745 472.46)"/>
    <path stroke="#65B6D6" d="M0 0h83.455v41.728H0z" transform="matrix(.86603 -.5 0 1 796.019 514.188)"/>
    <path stroke="#65B6D6" d="M0 0h83.455v83.455H0z" transform="matrix(.86603 .5 -.86603 .5 796.018 555.922)"/>
    <path stroke="#65B6D6" d="M0 0h83.455v41.728H0z" transform="matrix(.86603 .5 0 1 723.743 597.65)"/>
    <path stroke="#65B6D6" d="M0 0h83.455v41.728H0z" transform="matrix(.86603 -.5 0 1 796.018 639.377)"/>
</svg>
