<svg width="701" height="450" viewBox="0 0 701 450" fill="none" xmlns="http://www.w3.org/2000/svg">
<g clip-path="url(#clip0_27_305)">
<rect width="60.2051" height="30.1026" transform="matrix(0.5 0.866025 -0.5 0.866025 287.026 -71.3042)" stroke="#CCE8F1"/>
<rect width="60.2051" height="30.1026" transform="matrix(1 0 -0.5 0.866025 317.128 -19.165)" stroke="#CCE8F1"/>
<rect width="60.2051" height="60.2051" transform="matrix(0.5 0.866025 -1 0 302.077 6.90454)" stroke="#CCE8F1"/>
<rect width="60.2051" height="30.1026" transform="matrix(0.5 0.866025 -0.5 0.866025 241.872 6.90454)" stroke="#CCE8F1"/>
<rect width="60.2051" height="30.1026" transform="matrix(1 0 -0.5 0.866025 271.974 59.0437)" stroke="#CCE8F1"/>
<rect width="60.2051" height="60.2051" transform="matrix(0.5 0.866025 -1 0 256.923 85.1135)" stroke="#CCE8F1"/>
<rect width="60.2051" height="30.1026" transform="matrix(0.5 0.866025 -0.5 0.866025 196.718 85.1135)" stroke="#CCE8F1"/>
<rect width="60.2051" height="30.1026" transform="matrix(1 0 -0.5 0.866025 226.82 137.253)" stroke="#CCE8F1"/>
<rect width="60.2051" height="60.2051" transform="matrix(0.5 0.866025 -1 0 211.769 163.322)" stroke="#CCE8F1"/>
<rect width="60.2051" height="30.1026" transform="matrix(0.5 0.866025 -0.5 0.866025 151.564 163.322)" stroke="#CCE8F1"/>
<rect width="60.2051" height="30.1026" transform="matrix(1 0 -0.5 0.866025 181.667 215.461)" stroke="#CCE8F1"/>
<rect width="60.2051" height="60.2051" transform="matrix(0.5 0.866025 -1 0 166.615 241.531)" stroke="#CCE8F1"/>
<rect width="60.2051" height="30.1026" transform="matrix(0.5 0.866025 -0.5 0.866025 106.41 241.531)" stroke="#CCE8F1"/>
<rect width="60.2051" height="30.1026" transform="matrix(1 0 -0.5 0.866025 136.513 293.67)" stroke="#CCE8F1"/>
<rect width="60.2051" height="60.2051" transform="matrix(0.5 0.866025 -1 0 121.462 319.74)" stroke="#CCE8F1"/>
<rect width="60.2051" height="30.1026" transform="matrix(0.5 0.866025 -0.5 0.866025 61.2564 319.74)" stroke="#CCE8F1"/>
<rect width="60.2051" height="30.1026" transform="matrix(1 0 -0.5 0.866025 91.3589 371.879)" stroke="#CCE8F1"/>
<rect width="60.2051" height="60.2051" transform="matrix(0.5 0.866025 -1 0 76.3076 397.948)" stroke="#CCE8F1"/>
<rect width="60.2051" height="30.1026" transform="matrix(0.5 0.866025 -0.5 0.866025 16.1025 397.948)" stroke="#CCE8F1"/>
<rect width="60.2051" height="30.1026" transform="matrix(1 0 -0.5 0.866025 46.2051 450.088)" stroke="#CCE8F1"/>
<rect width="60.2051" height="60.2051" transform="matrix(0.5 0.866025 -1 0 437.538 -19.165)" stroke="#CCE8F1"/>
<rect width="60.2051" height="30.1026" transform="matrix(0.5 0.866025 -0.5 0.866025 377.333 -19.165)" stroke="#CCE8F1"/>
<rect width="60.2051" height="30.1026" transform="matrix(1 0 -0.5 0.866025 407.436 32.9741)" stroke="#CCE8F1"/>
<rect width="60.2051" height="60.2051" transform="matrix(0.5 0.866025 -1 0 392.385 59.0437)" stroke="#CCE8F1"/>
<rect width="60.2051" height="30.1026" transform="matrix(0.5 0.866025 -0.5 0.866025 332.179 59.0437)" stroke="#CCE8F1"/>
<rect width="60.2051" height="30.1026" transform="matrix(1 0 -0.5 0.866025 362.282 111.183)" stroke="#CCE8F1"/>
<rect width="60.2051" height="60.2051" transform="matrix(0.5 0.866025 -1 0 347.231 137.253)" stroke="#CCE8F1"/>
<rect width="60.2051" height="30.1026" transform="matrix(0.5 0.866025 -0.5 0.866025 287.026 137.253)" stroke="#CCE8F1"/>
<rect width="60.2051" height="30.1026" transform="matrix(1 0 -0.5 0.866025 317.128 189.392)" stroke="#CCE8F1"/>
<rect width="60.2051" height="60.2051" transform="matrix(0.5 0.866025 -1 0 302.077 215.461)" stroke="#CCE8F1"/>
<rect width="60.2051" height="30.1026" transform="matrix(0.5 0.866025 -0.5 0.866025 241.872 215.461)" stroke="#CCE8F1"/>
<rect width="60.2051" height="30.1026" transform="matrix(1 0 -0.5 0.866025 271.974 267.6)" stroke="#CCE8F1"/>
<rect width="60.2051" height="60.2051" transform="matrix(0.5 0.866025 -1 0 256.923 293.67)" stroke="#CCE8F1"/>
<rect width="60.2051" height="30.1026" transform="matrix(0.5 0.866025 -0.5 0.866025 196.718 293.67)" stroke="#CCE8F1"/>
<rect width="60.2051" height="30.1026" transform="matrix(1 0 -0.5 0.866025 226.82 345.809)" stroke="#CCE8F1"/>
<rect width="60.2051" height="60.2051" transform="matrix(0.5 0.866025 -1 0 211.769 371.879)" stroke="#CCE8F1"/>
<rect width="60.2051" height="30.1026" transform="matrix(0.5 0.866025 -0.5 0.866025 151.564 371.879)" stroke="#CCE8F1"/>
<rect width="60.2051" height="30.1026" transform="matrix(1 0 -0.5 0.866025 181.667 424.018)" stroke="#CCE8F1"/>
<rect width="60.2051" height="60.2051" transform="matrix(0.5 0.866025 -1 0 166.615 450.088)" stroke="#CCE8F1"/>
<rect width="60.2051" height="30.1026" transform="matrix(0.5 0.866025 -0.5 0.866025 106.41 450.088)" stroke="#CCE8F1"/>
<rect width="60.2051" height="60.2051" transform="matrix(0.5 0.866025 -1 0 573 -45.2346)" stroke="#CCE8F1"/>
<rect width="60.2051" height="30.1026" transform="matrix(0.5 0.866025 -0.5 0.866025 512.795 -45.2346)" stroke="#CCE8F1"/>
<rect width="60.2051" height="30.1026" transform="matrix(1 0 -0.5 0.866025 542.897 6.90454)" stroke="#CCE8F1"/>
<rect width="60.2051" height="60.2051" transform="matrix(0.5 0.866025 -1 0 527.846 32.9741)" stroke="#CCE8F1"/>
<rect width="60.2051" height="30.1026" transform="matrix(0.5 0.866025 -0.5 0.866025 467.641 32.9741)" stroke="#CCE8F1"/>
<rect width="60.2051" height="30.1026" transform="matrix(1 0 -0.5 0.866025 497.743 85.1133)" stroke="#CCE8F1"/>
<rect width="60.2051" height="60.2051" transform="matrix(0.5 0.866025 -1 0 482.692 111.183)" stroke="#CCE8F1"/>
<rect width="60.2051" height="30.1026" transform="matrix(0.5 0.866025 -0.5 0.866025 422.487 111.183)" stroke="#CCE8F1"/>
<rect width="60.2051" height="30.1026" transform="matrix(1 0 -0.5 0.866025 452.59 163.322)" stroke="#CCE8F1"/>
<rect width="60.2051" height="60.2051" transform="matrix(0.5 0.866025 -1 0 437.538 189.392)" stroke="#CCE8F1"/>
<rect width="60.2051" height="30.1026" transform="matrix(0.5 0.866025 -0.5 0.866025 377.333 189.392)" stroke="#CCE8F1"/>
<rect width="60.2051" height="30.1026" transform="matrix(1 0 -0.5 0.866025 407.436 241.531)" stroke="#CCE8F1"/>
<rect width="60.2051" height="60.2051" transform="matrix(0.5 0.866025 -1 0 392.385 267.6)" stroke="#CCE8F1"/>
<rect width="60.2051" height="30.1026" transform="matrix(0.5 0.866025 -0.5 0.866025 332.179 267.6)" stroke="#CCE8F1"/>
<rect width="60.2051" height="30.1026" transform="matrix(1 0 -0.5 0.866025 362.282 319.74)" stroke="#CCE8F1"/>
<rect width="60.2051" height="60.2051" transform="matrix(0.5 0.866025 -1 0 347.231 345.809)" stroke="#CCE8F1"/>
<rect width="60.2051" height="30.1026" transform="matrix(0.5 0.866025 -0.5 0.866025 287.026 345.809)" stroke="#CCE8F1"/>
<rect width="60.2051" height="30.1026" transform="matrix(1 0 -0.5 0.866025 317.128 397.948)" stroke="#CCE8F1"/>
<rect width="60.2051" height="60.2051" transform="matrix(0.5 0.866025 -1 0 302.077 424.018)" stroke="#CCE8F1"/>
<rect width="60.2051" height="30.1026" transform="matrix(0.5 0.866025 -0.5 0.866025 241.872 424.018)" stroke="#CCE8F1"/>
<rect width="60.2051" height="30.1026" transform="matrix(0.5 0.866025 -0.5 0.866025 648.257 -71.304)" stroke="#CCE8F1"/>
<rect width="60.2051" height="30.1026" transform="matrix(1 0 -0.5 0.866025 678.359 -19.1648)" stroke="#CCE8F1"/>
<rect width="60.2051" height="60.2051" transform="matrix(0.5 0.866025 -1 0 663.308 6.90479)" stroke="#CCE8F1"/>
<rect width="60.2051" height="30.1026" transform="matrix(0.5 0.866025 -0.5 0.866025 603.103 6.90479)" stroke="#CCE8F1"/>
<rect width="60.2051" height="30.1026" transform="matrix(1 0 -0.5 0.866025 633.205 59.0439)" stroke="#CCE8F1"/>
<rect width="60.2051" height="60.2051" transform="matrix(0.5 0.866025 -1 0 618.154 85.1135)" stroke="#CCE8F1"/>
<rect width="60.2051" height="30.1026" transform="matrix(0.5 0.866025 -0.5 0.866025 557.949 85.1135)" stroke="#CCE8F1"/>
<rect width="60.2051" height="30.1026" transform="matrix(1 0 -0.5 0.866025 588.051 137.253)" stroke="#CCE8F1"/>
<rect width="60.2051" height="60.2051" transform="matrix(0.5 0.866025 -1 0 573 163.322)" stroke="#CCE8F1"/>
<rect width="60.2051" height="30.1026" transform="matrix(0.5 0.866025 -0.5 0.866025 512.795 163.322)" stroke="#CCE8F1"/>
<rect width="60.2051" height="30.1026" transform="matrix(1 0 -0.5 0.866025 542.898 215.461)" stroke="#CCE8F1"/>
<rect width="60.2051" height="60.2051" transform="matrix(0.5 0.866025 -1 0 527.846 241.531)" stroke="#CCE8F1"/>
<rect width="60.2051" height="30.1026" transform="matrix(0.5 0.866025 -0.5 0.866025 467.641 241.531)" stroke="#CCE8F1"/>
<rect width="60.2051" height="30.1026" transform="matrix(1 0 -0.5 0.866025 497.744 293.67)" stroke="#CCE8F1"/>
<rect width="60.2051" height="60.2051" transform="matrix(0.5 0.866025 -1 0 482.692 319.74)" stroke="#CCE8F1"/>
<rect width="60.2051" height="30.1026" transform="matrix(0.5 0.866025 -0.5 0.866025 422.487 319.74)" stroke="#CCE8F1"/>
<rect width="60.2051" height="30.1026" transform="matrix(1 0 -0.5 0.866025 452.59 371.879)" stroke="#CCE8F1"/>
<rect width="60.2051" height="60.2051" transform="matrix(0.5 0.866025 -1 0 437.539 397.948)" stroke="#CCE8F1"/>
<rect width="60.2051" height="30.1026" transform="matrix(0.5 0.866025 -0.5 0.866025 377.333 397.948)" stroke="#CCE8F1"/>
<rect width="60.2051" height="30.1026" transform="matrix(1 0 -0.5 0.866025 407.436 450.088)" stroke="#CCE8F1"/>
<rect width="60.2051" height="60.2051" transform="matrix(0.5 0.866025 -1 0 753.615 59.0437)" stroke="#CCE8F1"/>
<rect width="60.2051" height="30.1026" transform="matrix(0.5 0.866025 -0.5 0.866025 693.41 59.0437)" stroke="#CCE8F1"/>
<rect width="60.2051" height="60.2051" transform="matrix(0.5 0.866025 -1 0 708.462 137.252)" stroke="#CCE8F1"/>
<rect width="60.2051" height="30.1026" transform="matrix(0.5 0.866025 -0.5 0.866025 648.256 137.252)" stroke="#CCE8F1"/>
<rect width="60.2051" height="30.1026" transform="matrix(1 0 -0.5 0.866025 678.359 189.392)" stroke="#CCE8F1"/>
<rect width="60.2051" height="60.2051" transform="matrix(0.5 0.866025 -1 0 663.308 215.461)" stroke="#CCE8F1"/>
<rect width="60.2051" height="30.1026" transform="matrix(0.5 0.866025 -0.5 0.866025 603.103 215.461)" stroke="#CCE8F1"/>
<rect width="60.2051" height="30.1026" transform="matrix(1 0 -0.5 0.866025 633.205 267.6)" stroke="#CCE8F1"/>
<rect width="60.2051" height="60.2051" transform="matrix(0.5 0.866025 -1 0 618.154 293.67)" stroke="#CCE8F1"/>
<rect width="60.2051" height="30.1026" transform="matrix(0.5 0.866025 -0.5 0.866025 557.949 293.67)" stroke="#CCE8F1"/>
<rect width="60.2051" height="30.1026" transform="matrix(1 0 -0.5 0.866025 588.051 345.809)" stroke="#CCE8F1"/>
<rect width="60.2051" height="60.2051" transform="matrix(0.5 0.866025 -1 0 573 371.879)" stroke="#CCE8F1"/>
<rect width="60.2051" height="30.1026" transform="matrix(0.5 0.866025 -0.5 0.866025 512.795 371.879)" stroke="#CCE8F1"/>
<rect width="60.2051" height="30.1026" transform="matrix(1 0 -0.5 0.866025 542.897 424.018)" stroke="#CCE8F1"/>
<rect width="60.2051" height="60.2051" transform="matrix(0.5 0.866025 -1 0 527.846 450.088)" stroke="#CCE8F1"/>
<rect width="60.2051" height="30.1026" transform="matrix(0.5 0.866025 -0.5 0.866025 467.641 450.088)" stroke="#CCE8F1"/>
<rect width="60.2051" height="60.2051" transform="matrix(0.5 0.866025 -1 0 753.615 267.6)" stroke="#CCE8F1"/>
<rect width="60.2051" height="30.1026" transform="matrix(0.5 0.866025 -0.5 0.866025 693.41 267.6)" stroke="#CCE8F1"/>
<rect width="60.2051" height="60.2051" transform="matrix(0.5 0.866025 -1 0 708.461 345.809)" stroke="#CCE8F1"/>
<rect width="60.2051" height="30.1026" transform="matrix(0.5 0.866025 -0.5 0.866025 648.256 345.809)" stroke="#CCE8F1"/>
<rect width="60.2051" height="30.1026" transform="matrix(1 0 -0.5 0.866025 678.359 397.948)" stroke="#CCE8F1"/>
<rect width="60.2051" height="60.2051" transform="matrix(0.5 0.866025 -1 0 663.308 424.018)" stroke="#CCE8F1"/>
<rect width="60.2051" height="30.1026" transform="matrix(0.5 0.866025 -0.5 0.866025 603.103 424.018)" stroke="#CCE8F1"/>
</g>
<defs>
<clipPath id="clip0_27_305">
<rect width="701" height="450" fill="white"/>
</clipPath>
</defs>
</svg>
