<svg xmlns="http://www.w3.org/2000/svg" width="740" height="323" fill="none" viewBox="0 0 740 323">
    <path stroke="#CCE8F1" d="M0 0h38.356v38.356H0z" transform="matrix(.25882 .96593 -.96593 -.25882 535.317 11.488)"/>
    <path stroke="#CCE8F1" d="M0 0h38.356v19.178H0z" transform="matrix(.25882 .96593 -.7071 .7071 498.267 1.56)"/>
    <path stroke="#CCE8F1" d="M0 0h38.356v19.178H0z" transform="matrix(.96593 .25882 -.7071 .7071 508.195 38.61)"/>
    <path stroke="#CCE8F1" d="M0 0h38.356v38.356H0z" transform="matrix(.25882 .96593 -.96593 -.25882 494.634 52.17)"/>
    <path stroke="#CCE8F1" d="M0 0h38.356v19.178H0z" transform="matrix(.25882 .96593 -.7071 .7071 457.585 42.244)"/>
    <path stroke="#CCE8F1" d="M0 0h38.356v19.178H0z" transform="matrix(.96593 .25882 -.7071 .7071 467.512 79.293)"/>
    <path stroke="#CCE8F1" d="M0 0h38.356v38.356H0z" transform="matrix(.25882 .96593 -.96593 -.25882 453.951 92.854)"/>
    <path stroke="#CCE8F1" d="M0 0h38.356v19.178H0z" transform="matrix(.25882 .96593 -.7071 .7071 416.902 82.927)"/>
    <path stroke="#CCE8F1" d="M0 0h38.356v19.178H0z" transform="matrix(.96593 .25882 -.7071 .7071 426.829 119.976)"/>
    <path stroke="#CCE8F1" d="M0 0h38.356v38.356H0z" transform="matrix(.25882 .96593 -.96593 -.25882 413.268 133.537)"/>
    <path stroke="#CCE8F1" d="M0 0h38.356v19.178H0z" transform="matrix(.25882 .96593 -.7071 .7071 376.219 123.609)"/>
    <path stroke="#CCE8F1" d="M0 0h38.356v19.178H0z" transform="matrix(.96593 .25882 -.7071 .7071 386.146 160.658)"/>
    <path stroke="#CCE8F1" d="M0 0h38.356v38.356H0z" transform="matrix(.25882 .96593 -.96593 -.25882 372.585 174.22)"/>
    <path stroke="#CCE8F1" d="M0 0h38.356v19.178H0z" transform="matrix(.25882 .96593 -.7071 .7071 335.536 164.292)"/>
    <path stroke="#CCE8F1" d="M0 0h38.356v19.178H0z" transform="matrix(.96593 .25882 -.7071 .7071 345.464 201.342)"/>
    <path stroke="#CCE8F1" d="M0 0h38.356v38.356H0z" transform="matrix(.25882 .96593 -.96593 -.25882 331.903 214.902)"/>
    <path stroke="#CCE8F1" d="M0 0h38.356v19.178H0z" transform="matrix(.25882 .96593 -.7071 .7071 294.853 204.975)"/>
    <path stroke="#CCE8F1" d="M0 0h38.356v19.178H0z" transform="matrix(.96593 .25882 -.7071 .7071 304.781 242.024)"/>
    <path stroke="#CCE8F1" d="M0 0h38.356v38.356H0z" transform="matrix(.25882 .96593 -.96593 -.25882 291.22 255.585)"/>
    <path stroke="#CCE8F1" d="M0 0h38.356v19.178H0z" transform="matrix(.25882 .96593 -.7071 .7071 254.171 245.658)"/>
    <path stroke="#CCE8F1" d="M0 0h38.356v19.178H0z" transform="matrix(.96593 .25882 -.7071 .7071 264.098 282.707)"/>
    <path stroke="#CCE8F1" d="M0 0h38.356v38.356H0z" transform="matrix(.25882 .96593 -.96593 -.25882 250.537 296.268)"/>
    <path stroke="#CCE8F1" d="M0 0h38.356v19.178H0z" transform="matrix(.25882 .96593 -.7071 .7071 213.488 286.341)"/>
    <path stroke="#CCE8F1" d="M0 0h38.356v19.178H0z" transform="matrix(.96593 .25882 -.7071 .7071 223.415 323.39)"/>
    <path stroke="#CCE8F1" d="M0 0h38.356v38.356H0z" transform="matrix(.25882 .96593 -.96593 -.25882 582.293 58.465)"/>
    <path stroke="#CCE8F1" d="M0 0h38.356v19.178H0z" transform="matrix(.25882 .96593 -.7071 .7071 545.244 48.537)"/>
    <path stroke="#CCE8F1" d="M0 0h38.356v19.178H0z" transform="matrix(.96593 .25882 -.7071 .7071 555.171 85.586)"/>
    <path stroke="#CCE8F1" d="M0 0h38.356v38.356H0z" transform="matrix(.25882 .96593 -.96593 -.25882 541.61 99.147)"/>
    <path stroke="#CCE8F1" d="M0 0h38.356v19.178H0z" transform="matrix(.25882 .96593 -.7071 .7071 504.561 89.22)"/>
    <path stroke="#CCE8F1" d="M0 0h38.356v19.178H0z" transform="matrix(.96593 .25882 -.7071 .7071 514.488 126.27)"/>
    <path stroke="#CCE8F1" d="M0 0h38.356v38.356H0z" transform="matrix(.25882 .96593 -.96593 -.25882 500.928 139.83)"/>
    <path stroke="#CCE8F1" d="M0 0h38.356v19.178H0z" transform="matrix(.25882 .96593 -.7071 .7071 463.878 129.903)"/>
    <path stroke="#CCE8F1" d="M0 0h38.356v19.178H0z" transform="matrix(.96593 .25882 -.7071 .7071 473.806 166.952)"/>
    <path stroke="#CCE8F1" d="M0 0h38.356v38.356H0z" transform="matrix(.25882 .96593 -.96593 -.25882 460.245 180.513)"/>
    <path stroke="#CCE8F1" d="M0 0h38.356v19.178H0z" transform="matrix(.25882 .96593 -.7071 .7071 423.195 170.586)"/>
    <path stroke="#CCE8F1" d="M0 0h38.356v19.178H0z" transform="matrix(.96593 .25882 -.7071 .7071 433.123 207.635)"/>
    <path stroke="#CCE8F1" d="M0 0h38.356v38.356H0z" transform="matrix(.25882 .96593 -.96593 -.25882 419.562 221.196)"/>
    <path stroke="#CCE8F1" d="M0 0h38.356v19.178H0z" transform="matrix(.25882 .96593 -.7071 .7071 382.513 211.269)"/>
    <path stroke="#CCE8F1" d="M0 0h38.356v19.178H0z" transform="matrix(.96593 .25882 -.7071 .7071 392.44 248.318)"/>
    <path stroke="#CCE8F1" d="M0 0h38.356v38.356H0z" transform="matrix(.25882 .96593 -.96593 -.25882 378.879 261.879)"/>
    <path stroke="#CCE8F1" d="M0 0h38.356v19.178H0z" transform="matrix(.25882 .96593 -.7071 .7071 341.83 251.951)"/>
    <path stroke="#CCE8F1" d="M0 0h38.356v19.178H0z" transform="matrix(.96593 .25882 -.7071 .7071 351.757 289.001)"/>
    <path stroke="#CCE8F1" d="M0 0h38.356v38.356H0z" transform="matrix(.25882 .96593 -.96593 -.25882 338.196 302.562)"/>
    <path stroke="#CCE8F1" d="M0 0h38.356v19.178H0z" transform="matrix(.25882 .96593 -.7071 .7071 301.147 292.634)"/>
    <path stroke="#CCE8F1" d="M0 0h38.356v38.356H0z" transform="matrix(.25882 .96593 -.96593 -.25882 629.27 105.441)"/>
    <path stroke="#CCE8F1" d="M0 0h38.356v19.178H0z" transform="matrix(.25882 .96593 -.7071 .7071 592.22 95.514)"/>
    <path stroke="#CCE8F1" d="M0 0h38.356v19.178H0z" transform="matrix(.96593 .25882 -.7071 .7071 602.148 132.563)"/>
    <path stroke="#CCE8F1" d="M0 0h38.356v38.356H0z" transform="matrix(.25882 .96593 -.96593 -.25882 588.587 146.124)"/>
    <path stroke="#CCE8F1" d="M0 0h38.356v19.178H0z" transform="matrix(.25882 .96593 -.7071 .7071 551.537 136.197)"/>
    <path stroke="#CCE8F1" d="M0 0h38.356v19.178H0z" transform="matrix(.96593 .25882 -.7071 .7071 561.465 173.246)"/>
    <path stroke="#CCE8F1" d="M0 0h38.356v38.356H0z" transform="matrix(.25882 .96593 -.96593 -.25882 547.904 186.807)"/>
    <path stroke="#CCE8F1" d="M0 0h38.356v19.178H0z" transform="matrix(.25882 .96593 -.7071 .7071 510.855 176.88)"/>
    <path stroke="#CCE8F1" d="M0 0h38.356v19.178H0z" transform="matrix(.96593 .25882 -.7071 .7071 520.782 213.929)"/>
    <path stroke="#CCE8F1" d="M0 0h38.356v38.356H0z" transform="matrix(.25882 .96593 -.96593 -.25882 507.221 227.49)"/>
    <path stroke="#CCE8F1" d="M0 0h38.356v19.178H0z" transform="matrix(.25882 .96593 -.7071 .7071 470.172 217.562)"/>
    <path stroke="#CCE8F1" d="M0 0h38.356v19.178H0z" transform="matrix(.96593 .25882 -.7071 .7071 480.099 254.612)"/>
    <path stroke="#CCE8F1" d="M0 0h38.356v38.356H0z" transform="matrix(.25882 .96593 -.96593 -.25882 466.538 268.173)"/>
    <path stroke="#CCE8F1" d="M0 0h38.356v19.178H0z" transform="matrix(.25882 .96593 -.7071 .7071 429.489 258.245)"/>
    <path stroke="#CCE8F1" d="M0 0h38.356v19.178H0z" transform="matrix(.96593 .25882 -.7071 .7071 439.417 295.294)"/>
    <path stroke="#CCE8F1" d="M0 0h38.356v38.356H0z" transform="matrix(.25882 .96593 -.96593 -.25882 425.855 308.855)"/>
    <path stroke="#CCE8F1" d="M0 0h38.356v19.178H0z" transform="matrix(.25882 .96593 -.7071 .7071 388.806 298.928)"/>
    <path stroke="#CCE8F1" d="M0 0h38.356v38.356H0z" transform="matrix(.25882 .96593 -.96593 -.25882 676.246 152.418)"/>
    <path stroke="#CCE8F1" d="M0 0h38.356v19.178H0z" transform="matrix(.25882 .96593 -.7071 .7071 639.197 142.491)"/>
    <path stroke="#CCE8F1" d="M0 0h38.356v19.178H0z" transform="matrix(.96593 .25882 -.7071 .7071 649.124 179.54)"/>
    <path stroke="#CCE8F1" d="M0 0h38.356v38.356H0z" transform="matrix(.25882 .96593 -.96593 -.25882 635.563 193.101)"/>
    <path stroke="#CCE8F1" d="M0 0h38.356v19.178H0z" transform="matrix(.25882 .96593 -.7071 .7071 598.514 183.174)"/>
    <path stroke="#CCE8F1" d="M0 0h38.356v19.178H0z" transform="matrix(.96593 .25882 -.7071 .7071 608.441 220.223)"/>
    <path stroke="#CCE8F1" d="M0 0h38.356v38.356H0z" transform="matrix(.25882 .96593 -.96593 -.25882 594.881 233.783)"/>
    <path stroke="#CCE8F1" d="M0 0h38.356v19.178H0z" transform="matrix(.25882 .96593 -.7071 .7071 557.832 223.856)"/>
    <path stroke="#CCE8F1" d="M0 0h38.356v19.178H0z" transform="matrix(.96593 .25882 -.7071 .7071 567.759 260.905)"/>
    <path stroke="#CCE8F1" d="M0 0h38.356v38.356H0z" transform="matrix(.25882 .96593 -.96593 -.25882 554.198 274.466)"/>
    <path stroke="#CCE8F1" d="M0 0h38.356v19.178H0z" transform="matrix(.25882 .96593 -.7071 .7071 517.149 264.539)"/>
    <path stroke="#CCE8F1" d="M0 0h38.356v19.178H0z" transform="matrix(.96593 .25882 -.7071 .7071 527.076 301.588)"/>
    <path stroke="#CCE8F1" d="M0 0h38.356v38.356H0z" transform="matrix(.25882 .96593 -.96593 -.25882 513.515 315.149)"/>
    <path stroke="#CCE8F1" d="M0 0h38.356v19.178H0z" transform="matrix(.25882 .96593 -.7071 .7071 476.466 305.222)"/>
    <path stroke="#CCE8F1" d="M0 0h38.356v38.356H0z" transform="matrix(.25882 .96593 -.96593 -.25882 723.223 199.394)"/>
    <path stroke="#CCE8F1" d="M0 0h38.356v19.178H0z" transform="matrix(.25882 .96593 -.7071 .7071 686.174 189.467)"/>
    <path stroke="#CCE8F1" d="M0 0h38.356v19.178H0z" transform="matrix(.96593 .25882 -.7071 .7071 696.101 226.516)"/>
    <path stroke="#CCE8F1" d="M0 0h38.356v38.356H0z" transform="matrix(.25882 .96593 -.96593 -.25882 682.54 240.077)"/>
    <path stroke="#CCE8F1" d="M0 0h38.356v19.178H0z" transform="matrix(.25882 .96593 -.7071 .7071 645.491 230.15)"/>
    <path stroke="#CCE8F1" d="M0 0h38.356v19.178H0z" transform="matrix(.96593 .25882 -.7071 .7071 655.418 267.199)"/>
    <path stroke="#CCE8F1" d="M0 0h38.356v38.356H0z" transform="matrix(.25882 .96593 -.96593 -.25882 641.857 280.76)"/>
    <path stroke="#CCE8F1" d="M0 0h38.356v19.178H0z" transform="matrix(.25882 .96593 -.7071 .7071 604.808 270.833)"/>
    <path stroke="#CCE8F1" d="M0 0h38.356v19.178H0z" transform="matrix(.96593 .25882 -.7071 .7071 614.735 307.882)"/>
    <path stroke="#CCE8F1" d="M0 0h38.356v38.356H0z" transform="matrix(.25882 .96593 -.96593 -.25882 601.174 321.443)"/>
    <path stroke="#CCE8F1" d="M0 0h38.356v19.178H0z" transform="matrix(.25882 .96593 -.7071 .7071 564.125 311.515)"/>
    <path stroke="#CCE8F1" d="M0 0h38.356v38.356H0z" transform="matrix(.25882 .96593 -.96593 -.25882 770.199 246.371)"/>
    <path stroke="#CCE8F1" d="M0 0h38.356v19.178H0z" transform="matrix(.25882 .96593 -.7071 .7071 733.15 236.443)"/>
    <path stroke="#CCE8F1" d="M0 0h38.356v19.178H0z" transform="matrix(.96593 .25882 -.7071 .7071 743.077 273.492)"/>
    <path stroke="#CCE8F1" d="M0 0h38.356v38.356H0z" transform="matrix(.25882 .96593 -.96593 -.25882 729.516 287.054)"/>
    <path stroke="#CCE8F1" d="M0 0h38.356v19.178H0z" transform="matrix(.25882 .96593 -.7071 .7071 692.467 277.126)"/>
    <path stroke="#CCE8F1" d="M0 0h38.356v19.178H0z" transform="matrix(.96593 .25882 -.7071 .7071 702.394 314.176)"/>
    <path stroke="#CCE8F1" d="M0 0h38.356v38.356H0z" transform="matrix(.25882 .96593 -.96593 -.25882 688.834 327.736)"/>
    <path stroke="#CCE8F1" d="M0 0h38.356v19.178H0z" transform="matrix(.25882 .96593 -.7071 .7071 651.785 317.809)"/>
</svg>
