<svg xmlns="http://www.w3.org/2000/svg" width="629" height="409" fill="none" viewBox="0 0 629 409">
    <g stroke="#65B6D6">
        <path d="M0 0h66.533v66.533H0z" transform="matrix(.86603 .5 -.86603 .5 58.62 -3.4)"/>
        <path d="M0 0h66.533v33.267H0z" transform="matrix(.86603 .5 0 1 1 29.867)"/>
        <path d="M0 0h66.533v33.267H0z" transform="matrix(.86603 -.5 0 1 58.62 63.133)"/>
        <path d="M0 0h66.533v66.533H0z" transform="matrix(.86603 .5 -.86603 .5 58.62 96.4)"/>
        <path d="M0 0h66.533v33.267H0z" transform="matrix(.86603 .5 0 1 1 129.667)"/>
        <path d="M0 0h66.533v33.267H0z" transform="matrix(.86603 -.5 0 1 58.62 162.933)"/>
        <path d="M0 0h66.533v66.533H0z" transform="matrix(.86603 .5 -.86603 .5 58.62 196.2)"/>
        <path d="M0 0h66.533v33.267H0z" transform="matrix(.86603 .5 0 1 1 229.467)"/>
        <path d="M0 0h66.533v33.267H0z" transform="matrix(.86603 -.5 0 1 58.62 262.733)"/>
        <path d="M0 0h66.533v66.533H0z" transform="matrix(.86603 .5 -.86603 .5 58.62 296)"/>
        <path d="M0 0h66.533v33.267H0z" transform="matrix(.86603 .5 0 1 1 329.267)"/>
        <path d="M0 0h66.533v33.267H0z" transform="matrix(.86603 -.5 0 1 58.62 362.533)"/>
        <path d="M0 0h66.533v66.533H0z" transform="matrix(.86603 .5 -.86603 .5 58.62 395.8)"/>
        <path d="M0 0h66.533v66.533H0z" transform="matrix(.86603 .5 -.86603 .5 173.859 -3.4)"/>
        <path d="M0 0h66.533v33.267H0z" transform="matrix(.86603 .5 0 1 116.239 29.867)"/>
        <path d="M0 0h66.533v33.267H0z" transform="matrix(.86603 -.5 0 1 173.859 63.133)"/>
        <path d="M0 0h66.533v66.533H0z" transform="matrix(.86603 .5 -.86603 .5 173.859 96.4)"/>
        <path d="M0 0h66.533v33.267H0z" transform="matrix(.86603 .5 0 1 116.239 129.667)"/>
        <path d="M0 0h66.533v33.267H0z" transform="matrix(.86603 -.5 0 1 173.859 162.933)"/>
        <path d="M0 0h66.533v66.533H0z" transform="matrix(.86603 .5 -.86603 .5 173.859 196.2)"/>
        <path d="M0 0h66.533v33.267H0z" transform="matrix(.86603 .5 0 1 116.239 229.467)"/>
        <path d="M0 0h66.533v33.267H0z" transform="matrix(.86603 -.5 0 1 173.859 262.733)"/>
        <path d="M0 0h66.533v66.533H0z" transform="matrix(.86603 .5 -.86603 .5 173.859 296)"/>
        <path d="M0 0h66.533v33.267H0z" transform="matrix(.86603 .5 0 1 116.239 329.267)"/>
        <path d="M0 0h66.533v33.267H0z" transform="matrix(.86603 -.5 0 1 173.859 362.533)"/>
        <path d="M0 0h66.533v66.533H0z" transform="matrix(.86603 .5 -.86603 .5 173.859 395.8)"/>
        <path d="M0 0h66.533v66.533H0z" transform="matrix(.86603 .5 -.86603 .5 289.098 -3.4)"/>
        <path d="M0 0h66.533v33.267H0z" transform="matrix(.86603 .5 0 1 231.478 29.867)"/>
        <path d="M0 0h66.533v33.267H0z" transform="matrix(.86603 -.5 0 1 289.098 63.133)"/>
        <path d="M0 0h66.533v66.533H0z" transform="matrix(.86603 .5 -.86603 .5 289.098 96.4)"/>
        <path d="M0 0h66.533v33.267H0z" transform="matrix(.86603 .5 0 1 231.478 129.667)"/>
        <path d="M0 0h66.533v33.267H0z" transform="matrix(.86603 -.5 0 1 289.098 162.933)"/>
        <path d="M0 0h66.533v66.533H0z" transform="matrix(.86603 .5 -.86603 .5 289.098 196.2)"/>
        <path d="M0 0h66.533v33.267H0z" transform="matrix(.86603 .5 0 1 231.478 229.467)"/>
        <path d="M0 0h66.533v33.267H0z" transform="matrix(.86603 -.5 0 1 289.098 262.733)"/>
        <path d="M0 0h66.533v66.533H0z" transform="matrix(.86603 .5 -.86603 .5 289.098 296)"/>
        <path d="M0 0h66.533v33.267H0z" transform="matrix(.86603 .5 0 1 231.478 329.267)"/>
        <path d="M0 0h66.533v33.267H0z" transform="matrix(.86603 -.5 0 1 289.098 362.533)"/>
        <path d="M0 0h66.533v66.533H0z" transform="matrix(.86603 .5 -.86603 .5 289.098 395.8)"/>
        <path d="M0 0h66.533v66.533H0z" transform="matrix(.86603 .5 -.86603 .5 404.337 -3.4)"/>
        <path d="M0 0h66.533v33.267H0z" transform="matrix(.86603 .5 0 1 346.717 29.867)"/>
        <path d="M0 0h66.533v33.267H0z" transform="matrix(.86603 -.5 0 1 404.337 63.133)"/>
        <path d="M0 0h66.533v66.533H0z" transform="matrix(.86603 .5 -.86603 .5 404.337 96.4)"/>
        <path d="M0 0h66.533v33.267H0z" transform="matrix(.86603 .5 0 1 346.717 129.667)"/>
        <path d="M0 0h66.533v33.267H0z" transform="matrix(.86603 -.5 0 1 404.337 162.933)"/>
        <path d="M0 0h66.533v66.533H0z" transform="matrix(.86603 .5 -.86603 .5 404.337 196.2)"/>
        <path d="M0 0h66.533v33.267H0z" transform="matrix(.86603 .5 0 1 346.717 229.467)"/>
        <path d="M0 0h66.533v33.267H0z" transform="matrix(.86603 -.5 0 1 404.337 262.733)"/>
        <path d="M0 0h66.533v66.533H0z" transform="matrix(.86603 .5 -.86603 .5 404.337 296)"/>
        <path d="M0 0h66.533v33.267H0z" transform="matrix(.86603 .5 0 1 346.717 329.267)"/>
        <path d="M0 0h66.533v33.267H0z" transform="matrix(.86603 -.5 0 1 404.337 362.533)"/>
        <path d="M0 0h66.533v66.533H0z" transform="matrix(.86603 .5 -.86603 .5 404.337 395.8)"/>
        <path d="M0 0h66.533v66.533H0z" transform="matrix(.86603 .5 -.86603 .5 519.576 -3.4)"/>
        <path d="M0 0h66.533v33.267H0z" transform="matrix(.86603 .5 0 1 461.956 29.867)"/>
        <path d="M0 0h66.533v33.267H0z" transform="matrix(.86603 -.5 0 1 519.576 63.133)"/>
        <path d="M0 0h66.533v66.533H0z" transform="matrix(.86603 .5 -.86603 .5 519.576 96.4)"/>
        <path d="M0 0h66.533v33.267H0z" transform="matrix(.86603 .5 0 1 461.956 129.667)"/>
        <path d="M0 0h66.533v33.267H0z" transform="matrix(.86603 -.5 0 1 519.576 162.933)"/>
        <path d="M0 0h66.533v66.533H0z" transform="matrix(.86603 .5 -.86603 .5 519.576 196.2)"/>
        <path d="M0 0h66.533v33.267H0z" transform="matrix(.86603 .5 0 1 461.956 229.467)"/>
        <path d="M0 0h66.533v33.267H0z" transform="matrix(.86603 -.5 0 1 519.576 262.733)"/>
        <path d="M0 0h66.533v66.533H0z" transform="matrix(.86603 .5 -.86603 .5 519.576 296)"/>
        <path d="M0 0h66.533v33.267H0z" transform="matrix(.86603 .5 0 1 461.956 329.267)"/>
        <path d="M0 0h66.533v33.267H0z" transform="matrix(.86603 -.5 0 1 519.576 362.533)"/>
        <path d="M0 0h66.533v66.533H0z" transform="matrix(.86603 .5 -.86603 .5 519.576 395.8)"/>
        <path d="M0 0h66.533v66.533H0z" transform="matrix(.86603 .5 -.86603 .5 634.815 -3.4)"/>
        <path d="M0 0h66.533v33.267H0z" transform="matrix(.86603 .5 0 1 577.195 29.867)"/>
        <path d="M0 0h66.533v66.533H0z" transform="matrix(.86603 .5 -.86603 .5 634.815 96.4)"/>
        <path d="M0 0h66.533v33.267H0z" transform="matrix(.86603 .5 0 1 577.195 129.667)"/>
        <path d="M0 0h66.533v66.533H0z" transform="matrix(.86603 .5 -.86603 .5 634.815 196.2)"/>
        <path d="M0 0h66.533v33.267H0z" transform="matrix(.86603 .5 0 1 577.195 229.467)"/>
        <path d="M0 0h66.533v66.533H0z" transform="matrix(.86603 .5 -.86603 .5 634.815 296)"/>
        <path d="M0 0h66.533v33.267H0z" transform="matrix(.86603 .5 0 1 577.195 329.267)"/>
        <path d="M0 0h66.533v66.533H0z" transform="matrix(.86603 .5 -.86603 .5 634.815 395.8)"/>
    </g>
</svg>
