<svg width="742" height="93" viewBox="0 0 742 93" fill="none" xmlns="http://www.w3.org/2000/svg">
<g clip-path="url(#clip0_25_5)">
<rect width="30.5171" height="30.5171" transform="matrix(0.866025 0.5 -0.866025 0.5 26.9286 1)" stroke="#65B6D6"/>
<rect width="30.5171" height="15.2585" transform="matrix(0.866025 0.5 0 1 0.5 16.2585)" stroke="#65B6D6"/>
<rect width="30.5171" height="15.2585" transform="matrix(0.866025 -0.5 0 1 26.9286 31.517)" stroke="#65B6D6"/>
<rect width="30.5171" height="30.5171" transform="matrix(0.866025 0.5 -0.866025 0.5 26.9286 46.7756)" stroke="#65B6D6"/>
<rect width="30.5171" height="15.2585" transform="matrix(0.866025 0.5 0 1 0.5 62.034)" stroke="#65B6D6"/>
<rect width="30.5171" height="15.2585" transform="matrix(0.866025 -0.5 0 1 26.9286 77.2927)" stroke="#65B6D6"/>
<rect width="30.5171" height="30.5171" transform="matrix(0.866025 0.5 -0.866025 0.5 26.9286 92.5511)" stroke="#65B6D6"/>
<rect width="30.5171" height="30.5171" transform="matrix(0.866025 0.5 -0.866025 0.5 79.7858 1)" stroke="#65B6D6"/>
<rect width="30.5171" height="15.2585" transform="matrix(0.866025 0.5 0 1 53.3572 16.2585)" stroke="#65B6D6"/>
<rect width="30.5171" height="15.2585" transform="matrix(0.866025 -0.5 0 1 79.7858 31.517)" stroke="#65B6D6"/>
<rect width="30.5171" height="30.5171" transform="matrix(0.866025 0.5 -0.866025 0.5 79.7858 46.7756)" stroke="#65B6D6"/>
<rect width="30.5171" height="15.2585" transform="matrix(0.866025 0.5 0 1 53.3572 62.034)" stroke="#65B6D6"/>
<rect width="30.5171" height="15.2585" transform="matrix(0.866025 -0.5 0 1 79.7858 77.2927)" stroke="#65B6D6"/>
<rect width="30.5171" height="30.5171" transform="matrix(0.866025 0.5 -0.866025 0.5 79.7858 92.5511)" stroke="#65B6D6"/>
<rect width="30.5171" height="30.5171" transform="matrix(0.866025 0.5 -0.866025 0.5 132.643 1)" stroke="#65B6D6"/>
<rect width="30.5171" height="15.2585" transform="matrix(0.866025 0.5 0 1 106.214 16.2585)" stroke="#65B6D6"/>
<rect width="30.5171" height="15.2585" transform="matrix(0.866025 -0.5 0 1 132.643 31.517)" stroke="#65B6D6"/>
<rect width="30.5171" height="30.5171" transform="matrix(0.866025 0.5 -0.866025 0.5 132.643 46.7756)" stroke="#65B6D6"/>
<rect width="30.5171" height="15.2585" transform="matrix(0.866025 0.5 0 1 106.214 62.034)" stroke="#65B6D6"/>
<rect width="30.5171" height="15.2585" transform="matrix(0.866025 -0.5 0 1 132.643 77.2927)" stroke="#65B6D6"/>
<rect width="30.5171" height="30.5171" transform="matrix(0.866025 0.5 -0.866025 0.5 132.643 92.5511)" stroke="#65B6D6"/>
<rect width="30.5171" height="30.5171" transform="matrix(0.866025 0.5 -0.866025 0.5 185.5 1)" stroke="#65B6D6"/>
<rect width="30.5171" height="15.2585" transform="matrix(0.866025 0.5 0 1 159.072 16.2585)" stroke="#65B6D6"/>
<rect width="30.5171" height="15.2585" transform="matrix(0.866025 -0.5 0 1 185.5 31.517)" stroke="#65B6D6"/>
<rect width="30.5171" height="30.5171" transform="matrix(0.866025 0.5 -0.866025 0.5 185.5 46.7756)" stroke="#65B6D6"/>
<rect width="30.5171" height="15.2585" transform="matrix(0.866025 0.5 0 1 159.072 62.034)" stroke="#65B6D6"/>
<rect width="30.5171" height="15.2585" transform="matrix(0.866025 -0.5 0 1 185.5 77.2927)" stroke="#65B6D6"/>
<rect width="30.5171" height="30.5171" transform="matrix(0.866025 0.5 -0.866025 0.5 185.5 92.5511)" stroke="#65B6D6"/>
<rect width="30.5171" height="30.5171" transform="matrix(0.866025 0.5 -0.866025 0.5 238.357 1)" stroke="#65B6D6"/>
<rect width="30.5171" height="15.2585" transform="matrix(0.866025 0.5 0 1 211.929 16.2585)" stroke="#65B6D6"/>
<rect width="30.5171" height="15.2585" transform="matrix(0.866025 -0.5 0 1 238.357 31.517)" stroke="#65B6D6"/>
<rect width="30.5171" height="30.5171" transform="matrix(0.866025 0.5 -0.866025 0.5 238.357 46.7756)" stroke="#65B6D6"/>
<rect width="30.5171" height="15.2585" transform="matrix(0.866025 0.5 0 1 211.929 62.034)" stroke="#65B6D6"/>
<rect width="30.5171" height="15.2585" transform="matrix(0.866025 -0.5 0 1 238.357 77.2927)" stroke="#65B6D6"/>
<rect width="30.5171" height="30.5171" transform="matrix(0.866025 0.5 -0.866025 0.5 238.357 92.5511)" stroke="#65B6D6"/>
<rect width="30.5171" height="30.5171" transform="matrix(0.866025 0.5 -0.866025 0.5 291.214 1)" stroke="#65B6D6"/>
<rect width="30.5171" height="15.2585" transform="matrix(0.866025 0.5 0 1 264.786 16.2585)" stroke="#65B6D6"/>
<rect width="30.5171" height="15.2585" transform="matrix(0.866025 -0.5 0 1 291.214 31.517)" stroke="#65B6D6"/>
<rect width="30.5171" height="30.5171" transform="matrix(0.866025 0.5 -0.866025 0.5 291.214 46.7756)" stroke="#65B6D6"/>
<rect width="30.5171" height="15.2585" transform="matrix(0.866025 0.5 0 1 264.786 62.034)" stroke="#65B6D6"/>
<rect width="30.5171" height="15.2585" transform="matrix(0.866025 -0.5 0 1 291.214 77.2927)" stroke="#65B6D6"/>
<rect width="30.5171" height="30.5171" transform="matrix(0.866025 0.5 -0.866025 0.5 291.214 92.5511)" stroke="#65B6D6"/>
<rect width="30.5171" height="30.5171" transform="matrix(0.866025 0.5 -0.866025 0.5 344.072 1)" stroke="#65B6D6"/>
<rect width="30.5171" height="15.2585" transform="matrix(0.866025 0.5 0 1 317.643 16.2585)" stroke="#65B6D6"/>
<rect width="30.5171" height="15.2585" transform="matrix(0.866025 -0.5 0 1 344.072 31.517)" stroke="#65B6D6"/>
<rect width="30.5171" height="30.5171" transform="matrix(0.866025 0.5 -0.866025 0.5 344.072 46.7756)" stroke="#65B6D6"/>
<rect width="30.5171" height="15.2585" transform="matrix(0.866025 0.5 0 1 317.643 62.034)" stroke="#65B6D6"/>
<rect width="30.5171" height="15.2585" transform="matrix(0.866025 -0.5 0 1 344.072 77.2927)" stroke="#65B6D6"/>
<rect width="30.5171" height="30.5171" transform="matrix(0.866025 0.5 -0.866025 0.5 344.072 92.5511)" stroke="#65B6D6"/>
<rect width="30.5171" height="30.5171" transform="matrix(0.866025 0.5 -0.866025 0.5 396.929 1)" stroke="#65B6D6"/>
<rect width="30.5171" height="15.2585" transform="matrix(0.866025 0.5 0 1 370.5 16.2585)" stroke="#65B6D6"/>
<rect width="30.5171" height="15.2585" transform="matrix(0.866025 -0.5 0 1 396.929 31.517)" stroke="#65B6D6"/>
<rect width="30.5171" height="30.5171" transform="matrix(0.866025 0.5 -0.866025 0.5 396.929 46.7756)" stroke="#65B6D6"/>
<rect width="30.5171" height="15.2585" transform="matrix(0.866025 0.5 0 1 370.5 62.034)" stroke="#65B6D6"/>
<rect width="30.5171" height="15.2585" transform="matrix(0.866025 -0.5 0 1 396.929 77.2927)" stroke="#65B6D6"/>
<rect width="30.5171" height="30.5171" transform="matrix(0.866025 0.5 -0.866025 0.5 396.929 92.5511)" stroke="#65B6D6"/>
<rect width="30.5171" height="30.5171" transform="matrix(0.866025 0.5 -0.866025 0.5 449.786 1)" stroke="#65B6D6"/>
<rect width="30.5171" height="15.2585" transform="matrix(0.866025 0.5 0 1 423.357 16.2585)" stroke="#65B6D6"/>
<rect width="30.5171" height="15.2585" transform="matrix(0.866025 -0.5 0 1 449.786 31.517)" stroke="#65B6D6"/>
<rect width="30.5171" height="30.5171" transform="matrix(0.866025 0.5 -0.866025 0.5 449.786 46.7756)" stroke="#65B6D6"/>
<rect width="30.5171" height="15.2585" transform="matrix(0.866025 0.5 0 1 423.357 62.034)" stroke="#65B6D6"/>
<rect width="30.5171" height="15.2585" transform="matrix(0.866025 -0.5 0 1 449.786 77.2927)" stroke="#65B6D6"/>
<rect width="30.5171" height="30.5171" transform="matrix(0.866025 0.5 -0.866025 0.5 449.786 92.5511)" stroke="#65B6D6"/>
<rect width="30.5171" height="30.5171" transform="matrix(0.866025 0.5 -0.866025 0.5 502.643 1)" stroke="#65B6D6"/>
<rect width="30.5171" height="15.2585" transform="matrix(0.866025 0.5 0 1 476.214 16.2585)" stroke="#65B6D6"/>
<rect width="30.5171" height="15.2585" transform="matrix(0.866025 -0.5 0 1 502.643 31.517)" stroke="#65B6D6"/>
<rect width="30.5171" height="30.5171" transform="matrix(0.866025 0.5 -0.866025 0.5 502.643 46.7756)" stroke="#65B6D6"/>
<rect width="30.5171" height="15.2585" transform="matrix(0.866025 0.5 0 1 476.214 62.034)" stroke="#65B6D6"/>
<rect width="30.5171" height="15.2585" transform="matrix(0.866025 -0.5 0 1 502.643 77.2927)" stroke="#65B6D6"/>
<rect width="30.5171" height="30.5171" transform="matrix(0.866025 0.5 -0.866025 0.5 502.643 92.5511)" stroke="#65B6D6"/>
<rect width="30.5171" height="30.5171" transform="matrix(0.866025 0.5 -0.866025 0.5 555.5 1)" stroke="#65B6D6"/>
<rect width="30.5171" height="15.2585" transform="matrix(0.866025 0.5 0 1 529.072 16.2585)" stroke="#65B6D6"/>
<rect width="30.5171" height="15.2585" transform="matrix(0.866025 -0.5 0 1 555.5 31.517)" stroke="#65B6D6"/>
<rect width="30.5171" height="30.5171" transform="matrix(0.866025 0.5 -0.866025 0.5 555.5 46.7756)" stroke="#65B6D6"/>
<rect width="30.5171" height="15.2585" transform="matrix(0.866025 0.5 0 1 529.072 62.034)" stroke="#65B6D6"/>
<rect width="30.5171" height="15.2585" transform="matrix(0.866025 -0.5 0 1 555.5 77.2927)" stroke="#65B6D6"/>
<rect width="30.5171" height="30.5171" transform="matrix(0.866025 0.5 -0.866025 0.5 555.5 92.5511)" stroke="#65B6D6"/>
<rect width="30.5171" height="30.5171" transform="matrix(0.866025 0.5 -0.866025 0.5 608.357 1)" stroke="#65B6D6"/>
<rect width="30.5171" height="15.2585" transform="matrix(0.866025 0.5 0 1 581.929 16.2585)" stroke="#65B6D6"/>
<rect width="30.5171" height="15.2585" transform="matrix(0.866025 -0.5 0 1 608.357 31.517)" stroke="#65B6D6"/>
<rect width="30.5171" height="30.5171" transform="matrix(0.866025 0.5 -0.866025 0.5 608.357 46.7756)" stroke="#65B6D6"/>
<rect width="30.5171" height="15.2585" transform="matrix(0.866025 0.5 0 1 581.929 62.034)" stroke="#65B6D6"/>
<rect width="30.5171" height="15.2585" transform="matrix(0.866025 -0.5 0 1 608.357 77.2927)" stroke="#65B6D6"/>
<rect width="30.5171" height="30.5171" transform="matrix(0.866025 0.5 -0.866025 0.5 608.357 92.5511)" stroke="#65B6D6"/>
<rect width="30.5171" height="30.5171" transform="matrix(0.866025 0.5 -0.866025 0.5 661.214 1)" stroke="#65B6D6"/>
<rect width="30.5171" height="15.2585" transform="matrix(0.866025 0.5 0 1 634.786 16.2585)" stroke="#65B6D6"/>
<rect width="30.5171" height="15.2585" transform="matrix(0.866025 -0.5 0 1 661.214 31.517)" stroke="#65B6D6"/>
<rect width="30.5171" height="30.5171" transform="matrix(0.866025 0.5 -0.866025 0.5 661.214 46.7756)" stroke="#65B6D6"/>
<rect width="30.5171" height="15.2585" transform="matrix(0.866025 0.5 0 1 634.786 62.034)" stroke="#65B6D6"/>
<rect width="30.5171" height="15.2585" transform="matrix(0.866025 -0.5 0 1 661.214 77.2927)" stroke="#65B6D6"/>
<rect width="30.5171" height="30.5171" transform="matrix(0.866025 0.5 -0.866025 0.5 661.214 92.5511)" stroke="#65B6D6"/>
<rect width="30.5171" height="30.5171" transform="matrix(0.866025 0.5 -0.866025 0.5 714.072 1)" stroke="#65B6D6"/>
<rect width="30.5171" height="15.2585" transform="matrix(0.866025 0.5 0 1 687.643 16.2585)" stroke="#65B6D6"/>
<rect width="30.5171" height="15.2585" transform="matrix(0.866025 -0.5 0 1 714.072 31.517)" stroke="#65B6D6"/>
<rect width="30.5171" height="30.5171" transform="matrix(0.866025 0.5 -0.866025 0.5 714.072 46.7756)" stroke="#65B6D6"/>
<rect width="30.5171" height="15.2585" transform="matrix(0.866025 0.5 0 1 687.643 62.034)" stroke="#65B6D6"/>
<rect width="30.5171" height="15.2585" transform="matrix(0.866025 -0.5 0 1 714.072 77.2927)" stroke="#65B6D6"/>
<rect width="30.5171" height="30.5171" transform="matrix(0.866025 0.5 -0.866025 0.5 714.072 92.5511)" stroke="#65B6D6"/>
</g>
<defs>
<clipPath id="clip0_25_5">
<rect width="742" height="93" fill="white"/>
</clipPath>
</defs>
</svg>
