<svg xmlns="http://www.w3.org/2000/svg" width="282" height="233" fill="none" viewBox="0 0 282 233">
    <g stroke="#65B6D6" filter="url(#filter0_f_18_579)">
        <path d="M0 0h30.847v30.847H0z" transform="scale(1.22474 .7071) rotate(45 96.814 127)"/>
        <path d="M0 0h30.847v15.424H0z" transform="matrix(.86603 .5 0 1 118 -6.681)"/>
        <path d="M0 0h30.847v15.424H0z" transform="matrix(.86603 -.5 0 1 144.714 8.742)"/>
        <path d="M0 0h30.847v30.847H0z" transform="matrix(.86603 .5 -.86603 .5 144.714 24.166)"/>
        <path d="M0 0h30.847v15.424H0z" transform="matrix(.86603 .5 0 1 118 39.59)"/>
        <path d="M0 0h30.847v15.424H0z" transform="matrix(.86603 -.5 0 1 144.714 55.013)"/>
        <path d="M0 0h30.847v30.847H0z" transform="matrix(.86603 .5 -.86603 .5 144.714 70.436)"/>
        <path d="M0 0h30.847v15.424H0z" transform="matrix(.86603 .5 0 1 118 85.86)"/>
        <path d="M0 0h30.847v15.424H0z" transform="matrix(.86603 -.5 0 1 144.714 101.283)"/>
        <path d="M0 0h30.847v30.847H0z" transform="matrix(.86603 .5 -.86603 .5 198.143 -22.105)"/>
        <path d="M0 0h30.847v15.424H0z" transform="matrix(.86603 .5 0 1 171.429 -6.681)"/>
        <path d="M0 0h30.847v15.424H0z" transform="matrix(.86603 -.5 0 1 198.143 8.742)"/>
        <path d="M0 0h30.847v30.847H0z" transform="matrix(.86603 .5 -.86603 .5 198.143 24.166)"/>
        <path d="M0 0h30.847v15.424H0z" transform="matrix(.86603 .5 0 1 171.429 39.59)"/>
        <path d="M0 0h30.847v15.424H0z" transform="matrix(.86603 -.5 0 1 198.143 55.013)"/>
        <path d="M0 0h30.847v30.847H0z" transform="matrix(.86603 .5 -.86603 .5 198.143 70.436)"/>
        <path d="M0 0h30.847v15.424H0z" transform="matrix(.86603 .5 0 1 171.429 85.86)"/>
        <path d="M0 0h30.847v15.424H0z" transform="matrix(.86603 -.5 0 1 198.143 101.283)"/>
        <path d="M0 0h30.847v30.847H0z" transform="matrix(.86603 .5 -.86603 .5 251.571 -22.105)"/>
        <path d="M0 0h30.847v15.424H0z" transform="matrix(.86603 .5 0 1 224.857 -6.681)"/>
        <path d="M0 0h30.847v15.424H0z" transform="matrix(.86603 -.5 0 1 251.571 8.742)"/>
        <path d="M0 0h30.847v30.847H0z" transform="matrix(.86603 .5 -.86603 .5 251.571 24.166)"/>
        <path d="M0 0h30.847v15.424H0z" transform="matrix(.86603 .5 0 1 224.857 39.59)"/>
        <path d="M0 0h30.847v15.424H0z" transform="matrix(.86603 -.5 0 1 251.571 55.013)"/>
        <path d="M0 0h30.847v30.847H0z" transform="matrix(.86603 .5 -.86603 .5 251.571 70.436)"/>
        <path d="M0 0h30.847v15.424H0z" transform="matrix(.86603 .5 0 1 224.857 85.86)"/>
        <path d="M0 0h30.847v15.424H0z" transform="matrix(.86603 -.5 0 1 251.571 101.283)"/>
        <path d="M0 0h30.847v30.847H0z" transform="matrix(.86603 .5 -.86603 .5 305 -22.105)"/>
        <path d="M0 0h30.847v15.424H0z" transform="matrix(.86603 .5 0 1 278.286 -6.681)"/>
        <path d="M0 0h30.847v30.847H0z" transform="matrix(.86603 .5 -.86603 .5 305 24.166)"/>
        <path d="M0 0h30.847v15.424H0z" transform="matrix(.86603 .5 0 1 278.286 39.59)"/>
        <path d="M0 0h30.847v30.847H0z" transform="matrix(.86603 .5 -.86603 .5 305 70.436)"/>
        <path d="M0 0h30.847v15.424H0z" transform="matrix(.86603 .5 0 1 278.286 85.86)"/>
    </g>
    <defs>
        <filter id="filter0_f_18_579" width="379.732" height="467.957" x="115.134" y="-348.5" color-interpolation-filters="sRGB" filterUnits="userSpaceOnUse">
            <feFlood flood-opacity="0" result="BackgroundImageFix"/>
            <feBlend in="SourceGraphic" in2="BackgroundImageFix" result="shape"/>
            <feGaussianBlur result="effect1_foregroundBlur_18_579" stdDeviation="1"/>
        </filter>
    </defs>
</svg>
